<?xml version="1.0" encoding="utf-8"?>
<!-- Generator: Adobe Illustrator 19.0.0, SVG Export Plug-In . SVG Version: 6.00 Build 0)  -->
<svg version="1.1" id="Layer_1" xmlns="http://www.w3.org/2000/svg" xmlns:xlink="http://www.w3.org/1999/xlink" x="0px" y="0px"
	 viewBox="0 0 1487 386" style="enable-background:new 0 0 1487 386;" xml:space="preserve">
<style type="text/css">
	.st0{fill:#AD463B;}
	.st1{fill:#3B3B3B;}
	.st2{fill:#3C3C3C;}
	.st3{fill:#AE473C;}
	.st4{fill:#AF493E;}
	.st5{fill:#E4C4C1;}
	.st6{fill:#CA8780;}
	.st7{fill:#E3BFBA;}
	.st8{fill:#E4C3C0;}
	.st9{fill:#E6C8C5;}
	.st10{fill:#D49E99;}
</style>
<g>
	<g>
		<path class="st0" d="M426.2,261.8c0,3,0,4.6,0,6.2c0,32.7,0,65.3,0,98c0,8.2-1.9,10-9.9,10c-6.8,0-13.7,0.1-20.5,0
			c-6.7-0.1-9.7-3.2-9.7-9.8c0-71.2,0-142.3,0-213.5c0-7.1,2.6-9.7,9.6-9.8c4.7,0,9.3,0.1,14,0c4.1-0.2,6.6,1.8,7.9,5.5
			c1.6,4.7,3.3,9.4,4.9,14.1c1.6,0.2,2-1.1,2.6-2c12.5-19,29.7-22.9,52.8-16.6c26,7.1,44.7,30.3,47.1,57.9
			c2.2,25.8-4.9,48.3-25.9,64.7c-13.5,10.6-29.2,14.8-46.4,12.7c-8.3-1.1-14.9-5.3-20.6-11.3C430.3,266.2,428.8,264.5,426.2,261.8z
			 M484.4,210.4c-0.1-18.9-13-33.2-30-33.2c-17.9,0-33.3,15.3-33.3,33c0,18.5,15,33.6,33.2,33.7
			C471.6,243.9,484.5,229.6,484.4,210.4z"/>
		<path class="st0" d="M264,261.9c0,35,0,68.8,0,102.6c0,10-1.5,11.5-11.6,11.5c-6.3,0-12.7,0.1-19,0c-6.6-0.1-9.5-3-9.5-9.4
			c0-71.5,0-142.9,0-214.4c0-6.8,2.5-9.3,9.3-9.3c4.7-0.1,9.3,0.1,14,0c4.1-0.1,6.6,1.7,7.9,5.5c1.7,4.8,3.4,9.6,5.3,15
			c1.9-2.4,3.5-4.3,4.9-6.3c9.1-12.6,21.7-16.9,36.7-15.7c40.4,3.2,64.6,38.4,60.6,76.6c-3,28.1-17.2,48.5-44.5,58.5
			c-6.3,2.3-12.9,3.1-19.6,3.4c-11.7,0.4-21.5-3.6-29.4-12.3C267.7,265.9,266.2,264.4,264,261.9z M324.3,210.2
			c-0.1-18.9-13.1-33.1-30.2-33c-17.9,0.1-33.2,15.3-33.1,33.2c0.1,18.5,15,33.5,33.3,33.5C311.6,243.8,324.4,229.5,324.3,210.2z"/>
		<path class="st0" d="M146.2,244.1c7.8-1.8,15.8-3,21.7-9.7c3.4-3.8,9.9-3.3,12.7,0.9c3.1,4.7,7.2,8.5,10.9,12.6
			c6.5,7.3,3.3,11.9-3.1,17.3c-9.3,7.8-20.2,12.9-31.7,16.3c-9.3,2.7-19.3,2.7-28.8,0.9c-13.1-2.5-25.5-7.1-36.3-15.5
			c-14.9-11.6-25.1-26.1-28.6-44.9c0.1-1.7,0.7-3.6-1.8-4.2c-1.4-8.4-2.1-17.1,0.1-25.3c2.8-10.3,4.7-20.9,11.2-30.1
			c4.4-6.2,8.8-12.4,14.4-17.3c7.8-6.8,16.7-12.2,27.1-14.4c1.5,0.1,2.9,0.3,3.2-1.7c36.7-9.3,78.5,14.2,88,52.8
			c-0.2,1.5-0.4,3,1.7,3.3c1.2,7.3,1.3,14.6,1.1,21.9c-0.2,7.4-1.5,9-8.9,11c-2.5,0.3-5.4-1.3-7.3,1.7c-27.9,0-55.8,0-83.7-0.1
			c-3.9,0-4.5,1.1-3.2,4.5c4.4,11,11.8,18.3,23.9,19.9c0.4,1.9,1.7,2,3.2,1.7c3.3,0,6.6,0,9.9,0C143.6,246,145.5,246.6,146.2,244.1z
			 M135.5,185.8c8.5,0,17-0.2,25.4,0.1c4.2,0.1,4.5-1.3,2.7-4.4c-0.6-1-1.2-2-1.9-2.9c-4.1-4.9-8.3-9.4-14.4-12.2
			c-5.5-2.6-18.4-3.8-23.3-0.7c-7,4.2-12.5,9.9-17.2,16.5c-0.7,1-1.2,2.1-0.9,3.1c0.4,1.1,1.7,0.6,2.6,0.6
			C117.6,185.8,126.5,185.8,135.5,185.8z"/>
		<path class="st0" d="M711.4,162.5c1.8-5,3.6-9.9,5.2-14.9c1.1-3.3,3.1-4.8,6.7-4.7c5.3,0.2,10.7,0,16,0.1c5.4,0.1,7.8,2.5,8.3,7.9
			c0.1,1.3,0.1,2.7,0.1,4c0,36.8,0,73.6,0,110.5c0,10.3-1.6,11.9-11.9,11.9c-5.5,0-11-0.1-16.5,0c-4.3,0.1-6.8-1.7-8.2-5.7
			c-1.1-3.2-1.3-7.9-4.3-8.8c-1.6-0.5-4.8,3.9-7.2,6.1c-12.2,11.5-26.4,12.9-41.9,8.8c-30.7-8-52.3-36.8-51.2-68.6
			c1.1-33.8,23.7-60.7,55.9-66.8c18.8-3.6,34.2,1.8,45.9,17.1C709,160.5,709.5,162.1,711.4,162.5z M674.8,243.4
			c18.5-0.1,32.8-14.6,32.7-33.1c-0.1-18.7-14.8-33.5-33.2-33.4c-17.2,0.1-30.2,14.5-30.2,33.6C644.2,229.7,657.1,243.5,674.8,243.4
			z"/>
		<path class="st0" d="M870.7,207.8c-0.1,19.8,7.2,32.8,23.3,40.1c8.6,3.9,17.5,2.3,26.1-0.7c6.2-2.2,12.2-4.8,17-9.7
			c2.4-2.5,5.3-2.2,8.1-0.2c4.1,2.9,8.2,5.8,12.4,8.7c5.3,3.6,6,8.9,1.5,13.4c-8.9,8.8-19.9,13.8-31.6,17.8
			c-5.8,1.9-11.7,3.4-17.6,3.6c-6.8,0.2-13.8-0.6-20.5-2.2c-17-4-32.1-11.9-43.7-25.4c-10.2-11.7-16.3-25.1-18.8-40.6
			c-3-19,1.9-36.1,11.1-52.1c6-10.4,14.4-19.5,24.8-25.6c6.7-4,13.9-8.3,22-9.3c16-2,32.1-3.5,47.5,3.5c3.9,1.8,7.3,4.5,10.4,7.7
			c4.6,4.9,10.1,8.8,14.8,13.7c12.2,12.5,15.3,27,11.7,43.5c-1.4,6.5-6.4,10.4-11,14.2c-9.5,8-20.7,13.2-32.5,16.9
			c-8.6,2.7-23-1.3-28.1-8.5c-3.5-4.9-3.5-10.7-1.5-16c2.6-6.7,6.2-7.1,12.7-3.8c5.4,2.7,11.7,1.6,17.4,0.5
			c4.4-0.9,8.6-2.9,12.9-4.4c1.7-0.6,2.7-1.8,3.8-3.1c0.9-1.1,1.6-2.2,1.1-3.6c-0.6-1.7-2.2-1.2-3.5-1.2c-3.7-0.1-7.3,0-11,0
			c-3.2-0.1-5.5-1.2-5.4-5c0.1-3.7,2.4-4.1,5.4-4c3.2,0.1,6.3,0,9.5,0.1c2.5,0.1,4.2-0.5,4.2-3.5c0-2.8,0.1-5.5-3.7-5.8
			c-2.7-0.2-5.3-0.1-8-0.2c-1.5,0-3-0.1-4.4-0.8c-2-1-3.2-2.5-2.9-4.7c0.3-2.4,2.5-2.7,4.1-2.9c3.6-0.3,7.3-0.2,11-0.1
			c1.6,0,3-0.2,3.6-1.9c0.6-1.8-0.5-3-1.7-3.8c-8.8-6.1-18.4-9.7-29.2-8.2c-6.7,1-10.3,6.2-12.6,11.9c-3.4,8.6-7.8,15.5-13.7,20.9
			C875.9,185.8,869.6,195.1,870.7,207.8z"/>
		<path class="st0" d="M810.3,167c0,33,0,66,0,99c0,9.6-1.6,11.2-11.4,11.2c-6.8,0-13.7,0.1-20.5,0c-5.7-0.1-7.4-1.7-7.9-7.3
			c-0.2-1.7-0.1-3.3-0.1-5c0-65.8,0-131.6,0-197.4c0-2,0.1-4,0.4-6c0.5-3.6,2.6-5.8,6.3-5.8c8.7-0.1,17.3-0.3,26-0.1
			c4.3,0.1,6.6,2.9,7.1,7c0.2,1.8,0.2,3.7,0.2,5.5C810.3,101,810.3,134,810.3,167z"/>
		<path class="st0" d="M546.1,210.3c0-18.8,0-37.6,0-56.4c0-8.3,2.3-10.6,10.7-10.6c6.2,0,12.3,0,18.5,0c7.8,0.1,11,3.2,11,10.8
			c0,37.6,0,75.3,0,112.9c0,8.4-1.9,10.2-10.3,10.3c-7,0-14,0.1-21,0c-6.8-0.1-9-2.1-9-9C546,248.9,546.1,229.6,546.1,210.3z"/>
		<path class="st0" d="M566.1,90.1c4.2,0,8.3-0.2,12.5,0c5.4,0.3,7.6,2.4,7.7,7.7c0.2,6.8,0.2,13.6,0,20.4c-0.2,5.9-3.5,9.3-9.4,9.4
			c-7.3,0.1-14.6,0.1-21.9,0c-6.4-0.1-8.8-2.4-8.9-8.8c-0.1-6.8-0.1-13.6,0-20.4c0.1-6.2,2.3-8.2,8.5-8.4
			C558.5,90,562.3,90,566.1,90.1C566.1,90,566.1,90.1,566.1,90.1z"/>
		<path class="st1" d="M1258,241.9c3.8,0,7.7-0.2,11.5,0.1c3.4,0.2,4.9-0.6,4.5-4.3c-0.3-3-0.1-6,0-9c0.1-3.9,0.7-8-5.6-6.7
			c-2.2,0.5-2.2-1.3-2.2-2.9c0-1.6,0-3,2.2-3c5.8,0,11.7,0.1,17.5,0c2.4,0,2.1,1.6,2.1,3.1c0,1.5,0.2,3.3-2.1,2.9
			c-5.4-1-5.3,2.2-5.2,6c0.2,12.2,0.1,24.3,0,36.5c0,2.9,0.3,5,3.9,4.3c2.4-0.4,3.6,0.3,3.5,3.1c-0.1,2.7-1.4,2.9-3.4,2.8
			c-5.2-0.1-10.3-0.1-15.5,0c-2.6,0.1-3-1.1-3-3.3c0-2.4,1.1-3,3.1-2.7c4.1,0.7,5.2-1.2,4.8-4.9c-0.5-5.2,2.2-12.3-1.1-15.3
			c-2.9-2.6-9.8-0.9-14.9-0.8c-5.3,0.1-12.3-2.3-15.3,1c-2.6,2.9-0.6,9.8-0.9,14.9c-0.2,3.6,0.4,5.8,4.7,5c2.2-0.4,2.9,0.7,2.8,2.8
			c-0.1,1.9-0.3,3.2-2.7,3.1c-5.5-0.1-11-0.1-16.5,0c-2.6,0-2.3-1.7-2.4-3.4c-0.1-1.9,0.5-3,2.5-2.6c4.7,0.9,4.9-1.7,4.9-5.4
			c-0.2-12.3-0.2-24.7,0-37c0-3.3-0.5-5.1-4.2-4.5c-2.3,0.4-3.2-0.5-3.2-3c0-2.5,1-3.1,3.3-3c5,0.1,10,0.1,15,0
			c2.2,0,3.4,0.3,3.4,2.9c0,2.4-0.7,3.5-3.1,3c-4.2-0.8-4.6,1.4-4.4,4.8c0.3,4.8-1.6,11.3,0.9,14c2.8,3.2,9.4,0.7,14.3,1
			C1257.4,241.9,1257.7,241.9,1258,241.9z"/>
		<path class="st1" d="M1411,260.7c0-13-0.1-24.6,0-36.2c0-3.1-2.1-2.4-3.8-2.4c-2.1,0-4.2,0.5-4.2-3.1c0.1-3.7,2.4-2.9,4.4-2.9
			c4.7-0.1,9.3,0.1,14-0.1c2.6-0.1,2.9,1.2,3,3.4c0.1,2.4-1.1,2.9-3,2.6c-3.7-0.6-4.3,1.2-4.3,4.5c0.2,14.5,0.1,29,0,43.5
			c0,1.6,1.2,3.9-1.1,4.8c-2.7,1.1-3.7-1.5-4.9-3.1c-9.7-12.9-19.5-25.8-29.2-38.6c-1-1.3-2-2.6-3.1-3.9c-1.5,1.1-0.8,2.6-0.8,3.7
			c-0.1,10.7,0,21.3-0.1,32c0,2.7,0.2,4.6,3.6,4.1c2.1-0.3,4.3-0.6,4.2,3c-0.1,3.6-2.4,2.9-4.5,2.9c-4.7,0-9.3-0.1-14,0
			c-2.2,0-3.4-0.3-3.4-2.9c0-2.4,0.8-3.4,3.2-3c4,0.7,4.6-1.3,4.6-4.8c-0.2-12.5-0.2-25,0-37.5c0-3.2-0.4-5.2-4.2-4.6
			c-2.5,0.4-3.5-0.4-3.5-3.2c0-2.8,1.6-2.6,3.5-2.8c6.6-0.9,11.3,1,15.3,7C1391.3,235.5,1400.9,247.3,1411,260.7z"/>
		<path class="st1" d="M1003.5,246.3c8.4-8.2,16.2-15.9,24-23.6c-1.1-1.4-2.7-0.7-4-0.6c-2.4,0.1-2.7-1-2.7-3c0-1.9,0.3-3.1,2.7-3.1
			c5.7,0.1,11.3,0.1,17,0c2.3,0,2.8,1,2.8,3c0,1.9-0.3,3.4-2.7,3c-3.3-0.6-5.2,1.3-7.2,3.4c-4.4,4.5-8.9,9-13.4,13.4
			c-1.6,1.5-1.9,2.6-0.5,4.6c5.2,7.5,10.3,15.1,15.2,22.9c1.6,2.5,3.4,2.8,5.8,2.6c2-0.1,3.4,0,3.4,2.8c0,2.9-1.3,3-3.6,3.3
			c-5.7,0.6-9.5-0.9-12.4-6.3c-3.8-7-8.7-13.4-12.9-20.2c-1.6-2.7-2.5-2.2-4.7-0.4c-5.6,4.4-7.8,9.8-6.9,16.9c0.3,2.8,0.7,4.4,3.9,4
			c2-0.2,3.8-0.5,3.9,2.8c0,3.5-1.9,3.2-4.1,3.2c-4.8-0.1-9.7-0.1-14.5,0c-2.3,0.1-3.3-0.6-3.3-3.1c-0.1-2.6,1.2-3.2,3.3-2.9
			c3.5,0.5,4.5-0.9,4.4-4.4c-0.2-12.7-0.2-25.3,0-38c0-3.3-0.6-5.1-4.3-4.5c-2,0.3-3.5,0-3.5-2.8c0-2.9,1.3-3.3,3.6-3.2
			c5,0.1,10,0.1,15,0c2.2-0.1,3.3,0.4,3.3,3c0,2.5-0.8,3.4-3.2,3c-4-0.7-4.7,1.2-4.6,4.7C1003.7,233.1,1003.5,239.4,1003.5,246.3z"
			/>
		<path class="st1" d="M1002.6,157c8.3-8.2,16-15.8,24.3-23.9c-1.9-0.1-3.5-0.3-5-0.3c-2.5,0-1.8-1.9-1.9-3.2
			c-0.1-1.4-0.1-2.6,2-2.6c6.2,0.1,12.3,0.1,18.5,0c2.4,0,1.9,1.7,2,3.1c0.1,1.7-0.2,3.2-2.4,2.8c-3.9-0.7-6.1,1.7-8.4,4.2
			c-3.9,4.1-7.9,8.2-12,12c-2.1,1.9-2.4,3.3-0.7,5.7c4.8,6.8,9.4,13.7,13.9,20.7c1.7,2.7,3.5,4.7,7.1,4.1c2.3-0.4,3.2,0.7,3.1,3.1
			c0,2.3-1,2.6-3,2.8c-6,0.7-10.2-0.7-13.3-6.6c-3.5-6.7-8.3-12.8-12.4-19.3c-1.6-2.5-2.3-3.1-5-0.8c-5.4,4.4-7.6,9.5-6.8,16.4
			c0.3,2.9,0.5,4.9,4.1,4.3c2.4-0.4,3.6,0.3,3.6,3.2c0,2.8-1.6,2.8-3.5,2.7c-5,0-10-0.1-15,0c-2.2,0-3.4-0.4-3.4-3
			c0-2.6,1.3-3.2,3.4-2.9c3.7,0.6,4.3-1.2,4.3-4.5c-0.2-12.7-0.2-25.3,0-38c0-3.1-0.6-4.7-4.1-4.1c-2.4,0.4-3.6-0.3-3.6-3.2
			c0-2.8,1.5-2.8,3.5-2.8c5,0.1,10,0.1,15,0c2,0,3.5,0,3.4,2.8c-0.1,2.4-0.8,3.5-3.2,3.1c-4.2-0.8-4.5,1.5-4.4,4.8
			C1002.8,143.9,1002.6,150.2,1002.6,157z"/>
		<path class="st1" d="M1071.1,126.9c4.3,0.3,9.5-0.5,14.6,0.8c7.7,2.1,12.4,6.6,13.4,13.1c1.1,7.9-1.7,13.9-9.1,17.7
			c-3,1.5-2.4,2.6-1,4.7c2.5,3.7,4.9,7.5,7.1,11.4c1.7,3,3.4,5.7,7.6,4.9c2.5-0.5,2.4,1.4,2.5,3.1c0,1.8-0.4,2.7-2.4,2.8
			c-5.6,0.3-10.5,0.3-13.2-6.5c-2.1-5.3-5.8-10.1-8.8-15c-1.1-1.7-9.4-3.2-10.9-2c-0.9,0.7-0.6,1.8-0.6,2.8c0,2.7,0.1,5.3,0,8
			c-0.2,3.9-0.7,8,5.5,6.8c2.1-0.4,2.2,1.3,2.2,2.9c0,1.7-0.3,2.9-2.4,2.9c-5.7,0-11.3-0.1-17,0c-2,0-2.6-0.8-2.5-2.7
			c0.1-1.8,0-3.6,2.5-3.2c4.5,0.7,5-1.6,5-5.4c-0.2-12.3-0.1-24.6,0-36.9c0-2.9-0.2-4.9-3.9-4.3c-2.4,0.4-3.5-0.3-3.6-3.1
			c0-3.3,1.9-2.8,3.9-2.8C1063.3,126.9,1066.8,126.9,1071.1,126.9z M1070.1,144.1c0,12.7,1.4,13.9,12.9,11c7-1.8,10.6-6.8,9.4-13
			c-1.3-7.1-7.9-10.6-19.4-9.1c-6.3,0.8-1.3,6.5-2.9,9.6C1069.9,143.1,1070.1,143.6,1070.1,144.1z"/>
		<path class="st1" d="M1209.7,125.9c16.7,0,29.3,12.8,29.3,29.9c0.1,17.6-12.7,30.7-29.8,30.6c-16.7-0.1-29.2-13.1-29.2-30.2
			C1180.1,138.9,1192.8,125.9,1209.7,125.9z M1232.1,156.4c0.1-14-9.3-24.3-22.2-24.5c-13.1-0.1-22.8,9.8-23,23.6
			c-0.1,14.3,9.2,24.6,22.4,24.7C1222.6,180.4,1232,170.4,1232.1,156.4z"/>
		<path class="st1" d="M1325.3,216.1c6,0,12,0.1,18-0.1c2.6-0.1,3.6,0.8,3.4,3.4c-0.2,2.5-0.1,5,0,7.5c0.1,2.3-0.3,3.7-3.2,3.7
			c-3.2,0.1-3.8-1.4-3.4-4c0.7-4.1-1.1-5.1-4.9-4.8c-4.5,0.3-9,0.2-13.5,0c-2.5-0.1-3.6,0.5-3.5,3.3c0.2,4.5,0.2,9,0,13.5
			c-0.1,2.7,0.9,3.4,3.5,3.3c3.5-0.2,7-0.2,10.5,0c2,0.1,5.3-1.7,5.2,3c-0.2,4.5-3.4,2.6-5.4,2.7c-3.5,0.3-7,0.2-10.5,0
			c-2.4-0.1-3.3,0.7-3.2,3.1c0.1,5,0.2,10,0,15c-0.1,2.5,0.9,3.1,3.2,3.1c4.8-0.1,9.7-0.2,14.5,0c3.1,0.1,4.6-0.5,4.2-4
			c-0.3-2.4-0.7-5,3.4-4.8c3.9,0.1,3.1,2.6,3.1,4.8c0.1,9.9,0.1,9.9-9.9,9.9c-9.5,0-19,0-28.5,0c-2.1,0-4.3,0.5-4.3-3
			c0-3.2,1.8-3.2,3.8-2.9c3.2,0.4,3.9-1,3.9-4c-0.1-13-0.1-26,0-38.9c0-2.9-0.6-4.4-3.8-4c-2,0.3-3.8,0.4-3.9-2.8
			c0-3.5,2.1-3.1,4.2-3.1C1313.9,216.1,1319.6,216.1,1325.3,216.1z"/>
		<path class="st1" d="M1139.6,185.4c-5.7,0-11.3,0-17,0c-2,0-4,0.5-4-2.8c0-3,1.5-3.4,3.7-3.1c3.3,0.5,3.8-1.1,3.7-4
			c-0.1-12.8-0.1-25.7,0-38.5c0-3.1-0.5-4.8-4-4.2c-2.6,0.4-3.4-0.7-3.5-3.3c0-2.9,1.7-2.7,3.6-2.6c11.8,0,23.7,0.1,35.5,0
			c2.6,0,3.6,0.7,3.3,3.4c-0.2,2.5-0.2,5,0,7.5c0.2,2.5-0.4,3.5-3.2,3.5c-2.9,0-3.4-1.4-3.1-3.7c0.6-4-1.1-5.2-5-4.9
			c-4.5,0.3-9,0.2-13.5,0c-2.5-0.1-3.6,0.5-3.5,3.3c0.2,4.5,0.2,9,0,13.5c-0.1,2.6,0.8,3.5,3.4,3.4c4.2-0.2,8.3,0,12.5-0.1
			c1.8,0,3.2,0,3.2,2.5c0,2.4-0.7,3.3-3.1,3.2c-4.2-0.1-8.3,0.1-12.5-0.1c-2.5-0.1-3.6,0.5-3.5,3.3c0.2,5,0.1,10,0,15
			c0,2.2,0.8,2.9,2.9,2.9c4.8-0.1,9.7-0.2,14.5,0c3.4,0.2,5-0.8,4.5-4.4c-0.3-2.4-0.4-4.5,3.3-4.4c3.7,0.1,2.9,2.2,2.9,4.3
			c0.1,10.2,0.1,10.2-9.9,10.2C1147.3,185.4,1143.4,185.4,1139.6,185.4z"/>
		<path class="st1" d="M1334.5,126.9c6,0,12,0.1,18,0c2.3,0,3.4,0.6,3.2,3.1c-0.2,2.5-0.1,5,0,7.5c0.1,2.2,0,3.8-3,3.8
			c-3,0-3.9-1.2-3.4-3.8c0.8-4.3-1.4-4.9-5-4.7c-4.7,0.3-9.3,0.1-14,0c-2.1,0-3,0.7-2.9,2.9c0.1,4.7,0.2,9.3,0,14
			c-0.1,2.8,1.2,3.3,3.6,3.2c4.2-0.1,8.3,0,12.5-0.1c2.1-0.1,3,0.5,3,2.8c0,2.1-0.6,3-2.9,3c-4.3-0.1-8.7,0.1-13-0.1
			c-2.3-0.1-3.3,0.8-3.2,3.2c0.1,4.8,0.1,9.7,0,14.5c-0.1,2.6,0.7,3.6,3.4,3.5c4.8-0.2,9.7-0.3,14.5,0c3.5,0.2,4.4-1.2,4.1-4.3
			c-0.2-2.3-0.6-4.5,3.3-4.5c3.8,0,3.3,2.1,3.3,4.5c0.1,10,0.1,10-9.8,10c-9.7,0-19.3,0-29,0c-2,0-3.9,0.3-3.9-2.9
			c0-3.1,1.7-3.3,3.8-3c3.8,0.5,3.9-1.6,3.9-4.5c-0.1-12.7-0.1-25.3,0-38c0-3.1-0.6-4.8-4.1-4.2c-2.3,0.4-3.7-0.2-3.7-3.1
			c0-3.3,1.9-2.9,3.9-2.9C1322.8,126.9,1328.6,126.9,1334.5,126.9z"/>
		<path class="st1" d="M1158.5,246.3c0.6-22.6,20.8-36.8,40-29.2c4.6,1.8,8.6,4.4,10.6,9.3c1.2,2.9,1.1,5.6-1.3,7.8
			c-1.7,1.5-3.8,1.6-5.6,0.5c-2.7-1.7-2.9-4.1-1.3-6.9c1.3-2.2-1.1-2.9-2.3-3.7c-7.1-4.6-17.8-3.6-24.7,2.3
			c-9.9,8.4-11.5,24-3.6,34.3c7.9,10.3,21.7,12,32.9,3.9c2.1-1.5,3.4-2.5,5.5,0.2c2.4,3.1-0.3,3.8-1.8,4.9
			c-10.3,7.1-21.3,8.4-32.6,2.8C1163.3,266.9,1158.7,257.2,1158.5,246.3z"/>
		<path class="st2" d="M1119.5,216.1c6.7,0,13.3,0.1,20-0.1c3.1-0.1,4.7,0.5,4.3,4c-0.3,2.5-0.1,5,0,7.5c0.1,2.3-0.2,3.7-3.1,3.7
			c-3.1,0.1-3.8-1.4-3.4-3.9c0.9-4.8-1.4-5.7-5.7-5.6c-8.7,0.3-8.7,0.1-8.7,9c0,11.2,0.1,22.3-0.1,33.5c0,3.1,0.3,5.2,4.2,4.6
			c2-0.3,3.9-0.4,3.9,2.8c0,3-1.5,3.1-3.8,3.1c-5.3-0.1-10.7-0.1-16,0c-2.6,0.1-3-1.1-3-3.3c-0.1-2.4,1.1-3,3-2.6
			c4.5,0.8,5.1-1.4,5-5.3c-0.2-12.5-0.2-25,0-37.5c0.1-3.6-1.1-4.8-4.5-4.3c-1.1,0.2-2.4,0.2-3.5,0c-4.9-0.8-7.5,0.7-6.5,6.2
			c0.5,2.9-1.3,3.1-3.6,3.2c-2.6,0.1-2.9-1.1-3-3.3c-0.5-11.9-0.6-11.9,11.4-11.9C1110.9,216.1,1115.2,216.1,1119.5,216.1z"/>
		<path class="st2" d="M1275,185.4c-5.7,0-11.3,0-17,0c-1.9,0-3.2-0.1-3.1-2.6c0.1-2.1,0.2-3.8,2.9-3.3c4,0.7,4.6-1.2,4.6-4.8
			c-0.2-12.6-0.2-25.3,0-37.9c0-2.9-0.6-4.4-3.8-3.9c-2.2,0.3-3.7,0-3.7-3c0-3.1,1.6-3,3.8-2.9c5,0.1,10,0,15,0
			c1.8,0,3.6-0.4,3.6,2.6c-0.1,2.5-0.7,3.8-3.3,3.4c-4-0.7-4.9,1-4.9,4.8c0.3,12.5,0.2,25,0,37.4c0,3.3,0.6,4.8,4.3,4.5
			c3.8-0.3,7.7-0.3,11.5,0c3.5,0.3,4.8-0.9,4.4-4.4c-0.2-2.1-0.9-4.7,3.1-4.7c3.8,0,3.3,2.3,3.3,4.6c0.1,10.2,0.1,10.2-10.1,10.2
			C1282,185.4,1278.5,185.4,1275,185.4z"/>
		<path class="st2" d="M1067.8,274.8c-2.5,0-5-0.1-7.5,0c-2.1,0.1-3.3-0.2-3.4-2.9c-0.1-2.9,1.3-3.5,3.6-3.1c4,0.7,4.6-1.2,4.5-4.7
			c-0.2-12.7-0.2-25.3,0-38c0-3.2-0.8-4.6-4.1-4.1c-2.3,0.3-4.1,0.2-4-3.2c0.1-3.3,2.1-2.7,4-2.8c5.2,0,10.3,0.1,15.5,0
			c2.6-0.1,3,1.2,3,3.3c0.1,2.3-1,3-3,2.7c-4-0.7-5,1.1-4.9,4.9c0.2,12.7,0.2,25.3,0,38c0,3,0.7,4.3,3.9,4c1.9-0.2,4-0.7,4,2.7
			c0,3.3-1.8,3.3-4.1,3.3C1072.9,274.8,1070.3,274.8,1067.8,274.8z"/>
		<path class="st3" d="M1465.5,267.1c-0.5,1.9-1.1,3.8-1.6,5.7c-0.4,1.8-1.5,2.4-3.2,2.3c-1.6-0.1-2.3-0.8-2.7-2.3
			c-0.6-2.4-1.4-4.7-2.5-8.1c-0.5,3.4-1,5.6-1.1,7.8c-0.1,2.2-1.2,2.7-3.2,2.7c-2.3,0-2.3-1.4-2.1-2.9c0.5-5.1,1.1-10.2,1.6-15.3
			c0.2-1.6,0.3-2.9,2.5-2.8c2,0.1,4-0.2,4.6,2.5c0.7,3,1.7,6,2.8,9.5c2.3-2.8,2.6-6,3.4-8.9c0.7-2.9,2.4-3,4.7-3
			c3-0.1,2.4,2.1,2.6,3.8c0.6,4.6,1.1,9.2,1.6,13.8c0.1,1.5,1,3.4-1.9,3.5c-2.3,0.1-3.3-0.7-3.5-3c-0.1-1.7-0.5-3.4-0.7-5.1
			C1466.2,267,1465.9,267,1465.5,267.1z"/>
		<path class="st4" d="M1438.3,254c1.8,0,3.7,0,5.5,0c1.6-0.1,2.5,0.4,2.4,2.2c-0.1,1.4,0,2.9-2,2.7c-3.7-0.5-3.4,1.9-3.4,4.3
			c0.1,3-0.1,6,0,9c0.1,2.1-0.7,2.9-2.9,2.9c-2.2,0-3-0.8-2.9-2.9c0.1-2.5,0.1-5,0-7.5c-0.1-2.7,1.3-6.3-3.9-5.9
			c-1.6,0.2-1.3-1.6-1.4-2.7c-0.1-1.4,0.4-2.2,2-2.2C1434,254,1436.1,254,1438.3,254z"/>
		<path class="st5" d="M191.8,219.9c1.8-3,4.8-1.4,7.3-1.7C197.3,221.4,194.3,219.8,191.8,219.9z"/>
		<path class="st6" d="M61.1,217.9c2.4,0.6,1.8,2.5,1.8,4.2C60.5,221.5,60.9,219.7,61.1,217.9z"/>
		<path class="st7" d="M146.2,244.1c-0.6,2.5-2.5,1.9-4.2,1.7C142.6,243.4,144.5,244.1,146.2,244.1z"/>
		<path class="st8" d="M206.8,185.2c-2.1-0.3-1.9-1.8-1.7-3.3C207.1,182.3,207.1,183.7,206.8,185.2z"/>
		<path class="st9" d="M132.1,245.8c-1.5,0.3-2.9,0.2-3.2-1.7C130.4,243.8,131.7,243.9,132.1,245.8z"/>
		<path class="st10" d="M117.1,129.2c-0.3,2.1-1.8,1.9-3.2,1.7C114.3,129,115.5,128.8,117.1,129.2z"/>
	</g>
</g>
</svg>
