<?xml version="1.0" encoding="utf-8"?>
<!-- Generator: Adobe Illustrator 19.0.0, SVG Export Plug-In . SVG Version: 6.00 Build 0)  -->
<svg version="1.1" id="Layer_1" xmlns="http://www.w3.org/2000/svg" xmlns:xlink="http://www.w3.org/1999/xlink" x="0px" y="0px"
	 viewBox="0 0 1080 1080" style="enable-background:new 0 0 1080 1080;" xml:space="preserve">
<style type="text/css">
	.st0{fill:#FFFFFF;}
</style>
<g>
	<path class="st0" d="M530,994.9c-98.1-0.5-186.2-30.6-262.6-92.1c-79.2-63.7-128.6-146-148.5-245.9c-6.6-33-8.7-66.5-6.7-100
		c5.5-92.3,37.7-174.3,97.6-244.9c60.5-71.4,136.9-117.2,228-138.2c25.2-5.8,50.8-8.8,76.7-9.7c75-2.7,145.6,13.6,211.8,48.5
		c49.7,26.2,92.2,61.4,127.9,104.9c31.6,38.5,55.5,81.4,71.5,128.6c11.2,32.9,18.1,66.8,20.7,101.6c4.3,58.8-3,116-23,171.5
		c-18,50.2-44.8,95.1-80.2,135c-36.4,41-79.2,73.7-128.4,97.9c-45.4,22.3-93.4,36.1-143.9,40.9C557.3,994.2,543.7,994.9,530,994.9z
		 M531.7,194.6c-22.5,0.3-43.1,1.7-63.5,5c-80,12.9-149.3,47.7-207.9,103.6c-34.1,32.5-61.1,70.4-81.1,113.1
		c-35.4,75.6-45,154.7-29.3,236.4c15.1,79.1,52.6,146.5,110.3,202.6c28,27.2,59.3,49.6,94.1,67c71.7,35.9,147.5,48.7,227.1,38.1
		c84.4-11.2,157.1-47,218.4-105.7c33.9-32.5,60.7-70.3,80.6-112.9c32.7-70.4,43.5-144.1,31.6-220.7C897,425.5,851.9,346.6,778,284.6
		C706.4,224.7,623.1,195.7,531.7,194.6z"/>
	<path class="st0" d="M942.2,116c2.2-7.1,4.3-14.2,6.5-21.3c1.8-5.7,10.3-9,15.5-6c1.5,0.9,1.7,2.3,1.9,3.9
		c1.4,13.1,2.7,26.1,4,39.2c0.3,3,0.3,5.6-4,5.9c-7.2,0.5-8.7-0.2-9.3-5c-0.7-5.9-1.4-11.9-2.7-18c-1.7,5.9-3.7,11.7-5.1,17.6
		c-1,4.2-3.3,5.5-7.5,5.4c-4,0-6-1.4-7-5.4c-1.4-5.5-2.7-11.1-5.8-17.7c-0.7,6.7-1.2,11.9-1.9,17.1c-0.7,5.3-8.1,8.4-12.4,5.2
		c-1.2-0.9-1.4-2.2-1.3-3.6c1.4-13.4,2.8-26.8,4.1-40.2c0.4-3.7,2.1-5.4,5.8-5c1.5,0.2,3,0.2,4.5,0c3.8-0.4,5.7,1.2,6.7,5
		c2.1,7.7,4.5,15.2,6.8,22.8C941.5,116,941.9,116,942.2,116z"/>
	<path class="st0" d="M881,118.6c0-3.7,0-7.3,0-11c0-6.8,0-7-6.8-7.1c-4-0.1-5.7-1.6-5.6-5.7c0.1-6.1,0.4-6.6,6.4-6.6
		c9.3,0,18.6,0.1,28-0.1c4-0.1,5.2,1.8,5.2,5.5c0,3.7-0.3,6.5-5.1,6.8c-8,0.5-7.9,0.7-8,8.4c0,7.8-0.1,15.7,0,23.5
		c0.1,4.8-2.7,5.4-6.5,5.3c-3.6-0.1-7.7,0.7-7.6-5.1C881.1,127.9,881.1,123.3,881,118.6C881,118.6,881,118.6,881,118.6z"/>
	<path class="st0" d="M677.2,381.3c8.5,0,17-0.1,25.5,0c4.8,0,9-0.9,11.2-5.8c2.2-5-0.4-8.6-3.5-12.1c-7.5-8.3-16.7-14.3-26.5-19.3
		c-26.9-13.5-55.6-20.8-85.5-22.2c-39.6-1.9-67.1,17.1-80.8,54.6c-6.7,18.4-9.6,37.4-10.4,56.8c-0.3,8.1-2.5,11.5-10.2,14.1
		c-40,13.8-67.7,41.4-87.7,77.7c-17.6,32-26.4,66.5-23,102.9c5.9,63.3,31.5,115.9,87.3,150.5c17.2,10.7,36.1,15.6,56.3,17
		c57.4,3.9,107.4-14.8,152.5-49.1c4.2-3.2,8.6-6.4,13.2-9.1c8.8-5.1,17.9-5.3,26.5,0.5c24.1,16.4,48.8,32,72.1,49.5
		c6.2,4.7,5.6,11.4,5.5,17.8c-0.1,11.5-7.1,19.4-15.2,26.5c-23,20.4-47.3,39.1-74.4,53.8c-36.8,20-75.8,33.5-117.6,38.5
		c-73.2,8.8-142.9-3.3-208.5-36.5c-72.4-36.5-126.2-91.6-161.2-164.9c-16.6-34.8-26.5-71.4-30.2-109.8c-5.9-61,3.2-119.6,27-175.9
		c15.1-35.8,35.9-68,62-96.8c49-54.1,109.5-88.3,180.9-102c85.3-16.4,165.3-1.1,239.1,44.8c54.3,33.8,94.9,80.4,124.5,136.5
		c13.5,25.6,17.8,53.1,15.5,82.3c-2.1,26.6-12.5,48.1-31.6,65.8c-15.2,14.1-32.9,24.3-52.2,31.7c-36.9,14.3-74.2,27.2-113.3,33.8
		c-26.1,4.4-52.3,6.4-78.3-0.5c-27.1-7.2-45.7-23.7-54-51.1c-3.3-11-0.5-21,7.9-27.9c8.1-6.6,17.8-7.1,27.9-1.2
		c15.1,8.7,31.5,11.6,48.6,10.8c24-1.2,47.8-3.9,70.9-11c16.2-5,31.8-11.2,43.9-23.8c1.3-1.3,2.5-2.7,3.6-4.1c3-3.9,4.5-8.2,2-13
		c-2.4-4.6-6.3-6.6-11.4-6.6c-16.2,0-32.3-0.1-48.5-0.1c-3.2,0-6.4,0.1-9.5-0.2c-12.6-1.3-19.1-9.6-17.9-22.9
		c1.1-11.9,8.7-18.4,21.1-17.7c16.3,1,32.7,0.4,49,0.5c10,0,14.5-4.6,15-14.5c0.2-3.7,0.7-7.3,0.7-11c0.1-9.9-5.8-15.9-15.7-16
		c-15.7-0.2-31.3,0-47-0.2c-13-0.2-22.4-9.7-22.2-22.1c0.2-10.8,8.1-19,19-19.2C658.9,381,668.1,381.2,677.2,381.3
		C677.2,381.2,677.2,381.3,677.2,381.3z"/>
</g>
</svg>
