<?xml version="1.0" encoding="utf-8"?>
<!-- Generator: Adobe Illustrator 19.0.0, SVG Export Plug-In . SVG Version: 6.00 Build 0)  -->
<svg version="1.1" id="Layer_1" xmlns="http://www.w3.org/2000/svg" xmlns:xlink="http://www.w3.org/1999/xlink" x="0px" y="0px"
	 viewBox="0 0 1487 386" style="enable-background:new 0 0 1487 386;" xml:space="preserve">
<style type="text/css">
	.st0{fill:#FFFFFF;}
</style>
<g>
	<g>
		<path class="st0" d="M426.2,261.8c0,3,0,4.6,0,6.2c0,32.7,0,65.3,0,98c0,8.2-1.9,10-9.9,10c-6.8,0-13.7,0.1-20.5,0
			c-6.7-0.1-9.7-3.2-9.7-9.8c0-71.2,0-142.3,0-213.5c0-7.1,2.6-9.7,9.6-9.8c4.7,0,9.3,0.1,14,0c4.1-0.2,6.6,1.8,7.9,5.5
			c1.6,4.7,3.3,9.4,4.9,14.1c1.6,0.2,2-1.1,2.6-2c12.5-19,29.7-22.9,52.8-16.6c26,7.1,44.7,30.3,47.1,57.9
			c2.2,25.8-4.9,48.3-25.9,64.7c-13.5,10.6-29.2,14.8-46.4,12.7c-8.3-1.1-14.9-5.3-20.6-11.3C430.3,266.2,428.8,264.5,426.2,261.8z
			 M484.4,210.4c-0.1-18.9-13-33.2-30-33.2c-17.9,0-33.3,15.3-33.3,33c0,18.5,15,33.6,33.2,33.7
			C471.6,243.9,484.5,229.6,484.4,210.4z"/>
		<path class="st0" d="M404.4,376.5c-2.9,0-5.8,0-8.6,0c-7-0.1-10.2-3.4-10.2-10.3c0-71.2,0-142.3,0-213.5c0-7.3,2.8-10.2,10-10.3
			c1.8,0,3.6,0,5.5,0c2.8,0,5.7,0,8.5-0.1c4.2-0.2,6.9,1.8,8.4,5.9c1.1,3.3,2.3,6.6,3.4,9.8l1.4,3.9c0.7,0,1.1-0.5,1.6-1.3
			c0.1-0.2,0.2-0.3,0.3-0.4c11.9-18.2,28.9-23.5,53.3-16.8c26,7.1,45.1,30.6,47.4,58.4c2.4,27.8-6.4,49.8-26.1,65.2
			c-13.6,10.7-29.4,15-46.8,12.8c-7.7-1-14.5-4.7-20.9-11.4c-1-1.1-2.1-2.2-3.4-3.6l-1.4-1.6l0,32.4c0,23.5,0,47,0,70.6
			c0,8.5-2.1,10.5-10.4,10.5l-4.5,0C409.3,376.5,406.9,376.5,404.4,376.5z M397.4,143.4c-0.6,0-1.2,0-1.8,0
			c-6.7,0.1-9.1,2.5-9.1,9.3c0,71.2,0,142.3,0,213.5c0,6.4,2.8,9.3,9.2,9.3c5.3,0.1,10.8,0,16,0l4.5,0c7.8,0,9.4-1.7,9.4-9.5
			c0-23.5,0-47,0-70.6l0-34.9l3.2,3.4c1.3,1.4,2.3,2.5,3.4,3.6c6.2,6.5,12.9,10.2,20.3,11.1c17.1,2.2,32.6-2,46.1-12.6
			c19.4-15.2,28-36.8,25.7-64.3c-2.3-27.4-21.1-50.5-46.7-57.5c-24.3-6.6-40.4-1.6-52.2,16.4c-0.1,0.1-0.2,0.3-0.3,0.4
			c-0.5,0.8-1.2,2-2.8,1.8l-0.3,0l-1.6-4.6c-1.1-3.3-2.3-6.6-3.4-9.8c-1.3-3.7-3.6-5.3-7.4-5.2c-2.9,0.1-5.8,0.1-8.6,0.1
			C399.8,143.4,398.6,143.4,397.4,143.4z M454.3,244.4C454.3,244.4,454.3,244.4,454.3,244.4c-18.6,0-33.7-15.4-33.7-34.2
			c0-8.5,3.6-17.1,10-23.4c6.4-6.4,15.1-10.1,23.8-10.1c0,0,0,0,0,0c17.3,0,30.5,14.5,30.5,33.7c0,10.1-3.4,19.1-9.8,25.4
			C469.6,241.3,462.2,244.4,454.3,244.4z M454.3,177.7c-8.4,0-16.8,3.6-23.1,9.8c-6.2,6.2-9.7,14.5-9.7,22.7
			c0,18.2,14.7,33.1,32.7,33.2c0,0,0,0,0.1,0c7.7,0,14.8-2.9,20.1-8.3c6.1-6.2,9.5-14.9,9.5-24.7
			C483.9,191.8,471.2,177.7,454.3,177.7C454.4,177.7,454.3,177.7,454.3,177.7z"/>
	</g>
	<g>
		<path class="st0" d="M264,261.9c0,35,0,68.8,0,102.6c0,10-1.5,11.5-11.6,11.5c-6.3,0-12.7,0.1-19,0c-6.6-0.1-9.5-3-9.5-9.4
			c0-71.5,0-142.9,0-214.4c0-6.8,2.5-9.3,9.3-9.3c4.7-0.1,9.3,0.1,14,0c4.1-0.1,6.6,1.7,7.9,5.5c1.7,4.8,3.4,9.6,5.3,15
			c1.9-2.4,3.5-4.3,4.9-6.3c9.1-12.6,21.7-16.9,36.7-15.7c40.4,3.2,64.6,38.4,60.6,76.6c-3,28.1-17.2,48.5-44.5,58.5
			c-6.3,2.3-12.9,3.1-19.6,3.4c-11.7,0.4-21.5-3.6-29.4-12.3C267.7,265.9,266.2,264.4,264,261.9z M324.3,210.2
			c-0.1-18.9-13.1-33.1-30.2-33c-17.9,0.1-33.2,15.3-33.1,33.2c0.1,18.5,15,33.5,33.3,33.5C311.6,243.8,324.4,229.5,324.3,210.2z"/>
		<path class="st0" d="M240.9,376.5c-2.5,0-5,0-7.5,0c-6.8-0.1-10-3.2-10-9.9c0-71.5,0-142.9,0-214.4c0-7.1,2.7-9.8,9.8-9.8
			c1.9,0,3.7,0,5.6,0c2.7,0,5.6,0,8.4-0.1c4.3-0.1,7,1.7,8.4,5.8c1.1,3.3,2.3,6.7,3.6,10.2c0.5,1.3,0.9,2.6,1.4,4
			c0.4-0.5,0.8-1,1.2-1.5c1.1-1.4,2.2-2.7,3.1-4c8.7-12,20.8-17.2,37.1-15.9c18.4,1.5,34.1,9.4,45.5,23.1c12,14.4,17.6,34.1,15.5,54
			c-3.1,29.3-18.2,49.1-44.8,58.9c-5.6,2-11.8,3.1-19.7,3.4c-11.8,0.4-21.9-3.8-29.8-12.5c-0.9-1-1.9-2-3-3.3l-1.2-1.3l0,101.3
			c0,10.3-1.7,12-12.1,12c-1.9,0-3.8,0-5.7,0C244.8,376.5,242.8,376.5,240.9,376.5z M235.2,143.4c-0.7,0-1.3,0-2,0
			c-6.6,0.1-8.8,2.3-8.8,8.8c0,71.5,0,142.9,0,214.4c0,6.2,2.7,8.8,9,8.9c4.4,0.1,8.9,0,13.3,0c1.9,0,3.8,0,5.7,0
			c9.8,0,11.1-1.3,11.1-11l0-103.9l2.9,3.2c1.2,1.3,2.1,2.3,3.1,3.3c7.7,8.5,17.4,12.6,29,12.2c7.8-0.3,14-1.3,19.4-3.3
			c26.3-9.7,41.1-29.2,44.1-58.1c2.1-19.7-3.5-39.1-15.3-53.3c-11.2-13.4-26.6-21.3-44.8-22.7c-15.9-1.3-27.8,3.8-36.2,15.5
			c-1,1.3-2,2.7-3.2,4.1c-0.6,0.7-1.1,1.4-1.8,2.2l-0.6,0.7l-0.3-0.9c-0.6-1.7-1.2-3.3-1.7-4.8c-1.3-3.5-2.5-6.9-3.6-10.2
			c-1.2-3.6-3.6-5.2-7.4-5.1c-2.8,0.1-5.7,0.1-8.4,0.1C237.6,143.4,236.4,143.4,235.2,143.4z M294.2,244.4
			c-18.5,0-33.6-15.2-33.7-34c0-8.7,3.5-17.1,9.9-23.6c6.4-6.4,15-10.1,23.7-10.1c17.4,0,30.6,14.4,30.7,33.5l0,0
			c0,10.1-3.4,19.2-9.7,25.6C309.6,241.3,302.2,244.4,294.2,244.4C294.2,244.4,294.2,244.4,294.2,244.4z M294.2,177.7
			C294.2,177.7,294.1,177.7,294.2,177.7c-8.5,0-16.9,3.6-23.1,9.8c-6.2,6.3-9.6,14.4-9.6,22.9c0.1,18.2,14.8,33,32.8,33
			c7.8,0,14.7-2.9,20.1-8.3c6.1-6.2,9.5-15,9.4-24.9C323.7,191.7,311,177.7,294.2,177.7z"/>
	</g>
	<g>
		<path class="st0" d="M146.2,244.1c7.8-1.8,15.8-3,21.7-9.7c3.4-3.8,9.9-3.3,12.7,0.9c3.1,4.7,7.2,8.5,10.9,12.6
			c6.5,7.3,3.3,11.9-3.1,17.3c-9.3,7.8-20.2,12.9-31.7,16.3c-9.3,2.7-19.3,2.7-28.8,0.9c-13.1-2.5-25.5-7.1-36.3-15.5
			c-14.9-11.6-25.1-26.1-28.6-44.9c0.1-1.7,0.7-3.6-1.8-4.2c-1.4-8.4-2.1-17.1,0.1-25.3c2.8-10.3,4.7-20.9,11.2-30.1
			c4.4-6.2,8.8-12.4,14.4-17.3c7.8-6.8,16.7-12.2,27.1-14.4c1.5,0.1,2.9,0.3,3.2-1.7c36.7-9.3,78.5,14.2,88,52.8
			c-0.2,1.5-0.4,3,1.7,3.3c1.2,7.3,1.3,14.6,1.1,21.9c-0.2,7.4-1.5,9-8.9,11c-2.5,0.3-5.4-1.3-7.3,1.7c-27.9,0-55.8,0-83.7-0.1
			c-3.9,0-4.5,1.1-3.2,4.5c4.4,11,11.8,18.3,23.9,19.9c0.4,1.9,1.7,2,3.2,1.7c3.3,0,6.6,0,9.9,0C143.6,246,145.5,246.6,146.2,244.1z
			 M135.5,185.8c8.5,0,17-0.2,25.4,0.1c4.2,0.1,4.5-1.3,2.7-4.4c-0.6-1-1.2-2-1.9-2.9c-4.1-4.9-8.3-9.4-14.4-12.2
			c-5.5-2.6-18.4-3.8-23.3-0.7c-7,4.2-12.5,9.9-17.2,16.5c-0.7,1-1.2,2.1-0.9,3.1c0.4,1.1,1.7,0.6,2.6,0.6
			C117.6,185.8,126.5,185.8,135.5,185.8z"/>
		<path class="st0" d="M140.8,284.3c-4.3,0-8.7-0.4-13.2-1.3c-14.7-2.8-26.6-7.9-36.5-15.6c-16.1-12.5-25.5-27.3-28.8-45.2l0-0.1
			l0-0.1c0-0.3,0-0.5,0.1-0.8c0.1-1.6,0.2-2.5-1.4-2.9l-0.3-0.1l-0.1-0.3c-1.3-7.7-2.3-16.8,0.1-25.5c0.5-1.7,0.9-3.4,1.3-5.1
			c2.2-8.6,4.5-17.4,9.9-25.2c4.3-6.1,8.8-12.5,14.4-17.4c9.1-7.8,18-12.6,27.4-14.5l0.1,0l0.2,0c1.6,0.1,2.4,0.1,2.5-1.3l0-0.3
			l0.3-0.1c18.1-4.6,38.2-1.4,55.2,8.9c17,10.2,28.9,25.9,33.4,44.3l0,0.1l0,0.1c-0.1,0.9-0.2,1.7,0.1,2.1c0.2,0.3,0.6,0.5,1.2,0.6
			l0.4,0.1l0.1,0.4c1.3,7.6,1.3,15,1.1,22c-0.2,7.7-1.6,9.4-9.2,11.5c-0.9,0.1-1.7,0-2.4,0c-1.8-0.2-3.4-0.3-4.5,1.5l-0.1,0.2h-0.3
			c-6.8,0-13.6,0-20.3,0c-20.8,0-42.3,0-63.4-0.1c-1.8,0-2.8,0.2-3.2,0.7c-0.3,0.5-0.2,1.5,0.4,3.1c4.6,11.7,12.4,18.1,23.5,19.6
			l0.4,0l0.1,0.4c0.2,1.3,0.9,1.6,2.7,1.3l10,0c0.3,0,0.5,0.1,0.7,0.1c1.7,0.2,2.6,0.3,3.1-1.4l0.1-0.3l0.3-0.1
			c0.8-0.2,1.6-0.4,2.4-0.5c7.1-1.6,13.8-3.1,19-9c1.7-1.9,4.2-2.9,6.9-2.7c2.7,0.2,5.1,1.6,6.5,3.7c2.2,3.4,5,6.4,7.7,9.3
			c1,1.1,2.1,2.2,3.1,3.3c2.7,3,3.9,5.7,3.7,8.3c-0.3,3.7-3.5,6.9-6.9,9.8c-8.7,7.3-19.1,12.7-31.9,16.4
			C151.7,283.5,146.4,284.3,140.8,284.3z M63.4,222.1c3.2,17.6,12.5,32.2,28.4,44.5c9.7,7.6,21.5,12.6,36.1,15.4
			c10.3,2,19.9,1.7,28.5-0.9c12.6-3.7,22.9-9,31.5-16.2c3.2-2.7,6.3-5.7,6.5-9.1c0.2-2.3-1-4.8-3.4-7.5c-1-1.1-2-2.2-3-3.3
			c-2.7-2.9-5.6-5.9-7.9-9.4c-1.2-1.9-3.4-3.1-5.7-3.2c-2.4-0.2-4.6,0.7-6.1,2.4c-5.4,6.1-12.6,7.7-19.5,9.3
			c-0.7,0.2-1.4,0.3-2.1,0.5c-0.7,2.3-2.7,2-4.1,1.9c-0.2,0-0.4-0.1-0.6-0.1l-9.8,0c-0.9,0.2-3,0.5-3.6-1.8
			c-11.4-1.6-19.3-8.2-24-20.2c-0.6-1.4-1-3-0.3-4c0.6-0.8,1.8-1.2,4-1.2c21.1,0.1,42.6,0.1,63.4,0.1c6.7,0,13.4,0,20.1,0
			c1.5-2.1,3.5-1.9,5.3-1.8c0.8,0.1,1.5,0.1,2.1,0.1c7.1-2,8.2-3.4,8.4-10.5c0.2-6.8,0.2-14.1-1-21.5c-0.7-0.2-1.1-0.4-1.5-0.9
			c-0.6-0.8-0.5-1.8-0.3-2.8c-4.5-18-16.1-33.5-32.9-43.6c-16.7-10-36.4-13.2-54.2-8.8c-0.4,2.1-2.2,2-3.6,1.8l0,0
			c-9.1,1.9-17.9,6.5-26.8,14.2c-5.6,4.8-10,11.1-14.3,17.2c-5.4,7.6-7.6,16.4-9.8,24.9c-0.4,1.7-0.9,3.4-1.3,5.1
			c-2.3,8.4-1.4,17.2-0.1,24.8c2.2,0.7,2,2.5,1.9,3.9C63.4,221.7,63.4,221.9,63.4,222.1z M107.1,186.4c-0.7,0-1.3-0.2-1.6-1.1
			c-0.3-1,0-2.2,0.9-3.6c5.1-7.2,10.7-12.6,17.3-16.6c5.3-3.2,18.4-1.9,23.8,0.7c6.3,3,10.6,7.8,14.5,12.4c0.7,0.8,1.3,1.7,2,3
			c1.1,1.9,1.3,3.1,0.8,4c-0.5,0.9-1.8,1.2-4,1.2c-6-0.2-12.1-0.2-18-0.1c-2.5,0-5,0-7.4,0l-6.1,0c-6.9,0-13.9,0-20.8,0
			c-0.2,0-0.4,0-0.6,0.1C107.7,186.4,107.4,186.4,107.1,186.4z M133.4,164.3c-3.7,0-7.1,0.5-9.1,1.7c-6.5,3.9-12,9.3-17,16.3
			c-0.8,1.1-1,2-0.8,2.7c0.1,0.4,0.4,0.4,1.4,0.3c0.3,0,0.6-0.1,0.8-0.1c6.9,0,13.9,0,20.8,0l6.1,0c2.5,0,4.9,0,7.4,0
			c5.9,0,12-0.1,18,0.1c1.7,0.1,2.8-0.2,3.1-0.7c0.3-0.5,0-1.5-0.8-3c-0.6-1.2-1.2-2.1-1.9-2.8c-3.8-4.5-8.1-9.2-14.2-12.1
			C143.9,165.2,138.4,164.3,133.4,164.3z"/>
	</g>
	<g>
		<path class="st0" d="M711.4,162.5c1.8-5,3.6-9.9,5.2-14.9c1.1-3.3,3.1-4.8,6.7-4.7c5.3,0.2,10.7,0,16,0.1c5.4,0.1,7.8,2.5,8.3,7.9
			c0.1,1.3,0.1,2.7,0.1,4c0,36.8,0,73.6,0,110.5c0,10.3-1.6,11.9-11.9,11.9c-5.5,0-11-0.1-16.5,0c-4.3,0.1-6.8-1.7-8.2-5.7
			c-1.1-3.2-1.3-7.9-4.3-8.8c-1.6-0.5-4.8,3.9-7.2,6.1c-12.2,11.5-26.4,12.9-41.9,8.8c-30.7-8-52.3-36.8-51.2-68.6
			c1.1-33.8,23.7-60.7,55.9-66.8c18.8-3.6,34.2,1.8,45.9,17.1C709,160.5,709.5,162.1,711.4,162.5z M674.8,243.4
			c18.5-0.1,32.8-14.6,32.7-33.1c-0.1-18.7-14.8-33.5-33.2-33.4c-17.2,0.1-30.2,14.5-30.2,33.6C644.2,229.7,657.1,243.5,674.8,243.4
			z"/>
		<path class="st0" d="M672.3,280.2c-4.6,0-9.5-0.7-14.8-2.1c-31-8.1-52.7-37.2-51.6-69.1c1.2-34.1,23.8-61.1,56.3-67.3
			c19.2-3.7,34.8,2.2,46.3,17.3c0.2,0.3,0.4,0.6,0.6,0.9c0.5,0.8,1,1.6,1.9,1.9c0.5-1.3,1-2.7,1.4-4c1.2-3.4,2.5-6.9,3.6-10.4
			c1.2-3.6,3.5-5.2,7.2-5c2.9,0.1,5.8,0.1,8.6,0.1c2.4,0,4.9,0,7.4,0c5.6,0.1,8.2,2.6,8.8,8.4c0.1,1.1,0.1,2.1,0.1,3.1l0,0.9l0,9.2
			c0,33.8,0,67.5,0,101.3c0,10.5-1.9,12.4-12.4,12.4c-1.7,0-3.4,0-5.1,0c-3.7,0-7.6-0.1-11.3,0.1c-4.4,0.1-7.2-1.8-8.7-6
			c-0.3-0.9-0.6-1.9-0.8-2.8c-0.6-2.5-1.3-5.1-3.2-5.7c-0.8-0.3-3,2-4.5,3.7c-0.7,0.8-1.5,1.6-2.2,2.3
			C692.1,276.6,683,280.2,672.3,280.2z M673.2,141.7c-3.4,0-7,0.4-10.8,1.1c-32,6.1-54.3,32.8-55.5,66.3
			c-1.1,31.5,20.3,60.1,50.9,68.1c17,4.4,30.5,1.6,41.4-8.7c0.7-0.6,1.4-1.4,2.1-2.2c2.2-2.4,4.1-4.5,5.6-4c2.5,0.8,3.2,3.7,3.9,6.4
			c0.2,1,0.5,1.9,0.8,2.7c1.4,3.9,3.8,5.5,7.8,5.4c3.8-0.1,7.7-0.1,11.4-0.1c1.7,0,3.4,0,5.1,0c10,0,11.4-1.4,11.4-11.4
			c0-33.8,0-67.5,0-101.3l0-9.2l0-0.9c0-1,0-2-0.1-3.1c-0.5-5.2-2.7-7.4-7.8-7.5c-2.5-0.1-4.9,0-7.4,0c-2.8,0-5.8,0-8.6-0.1
			c-3.2-0.1-5.1,1.2-6.2,4.4c-1.2,3.5-2.4,7-3.6,10.5c-0.5,1.5-1.1,3-1.6,4.5l-0.1,0.4l-0.4-0.1c-1.6-0.4-2.4-1.5-3-2.5
			c-0.2-0.3-0.3-0.5-0.5-0.8C698.6,147.6,687.2,141.7,673.2,141.7z M674.6,243.9c-8.2,0-15.7-3-21.3-8.5c-6.2-6.1-9.6-15-9.6-24.9
			c0-19.4,13.2-34,30.7-34.1c18.7-0.1,33.5,14.8,33.7,33.9c0.1,9.1-3.3,17.5-9.5,23.8c-6.2,6.3-14.6,9.7-23.7,9.8h0
			C674.7,243.9,674.7,243.9,674.6,243.9z M674.5,177.4c0,0-0.1,0-0.1,0c-16.9,0.1-29.7,14.3-29.7,33.1c0,9.6,3.3,18.2,9.3,24.2
			c5.4,5.4,12.5,8.2,20.6,8.2c0.1,0,0.2,0,0.3,0l0,0c8.8-0.1,17-3.4,23-9.5c6-6.1,9.3-14.3,9.2-23.1
			C706.9,191.8,692.6,177.4,674.5,177.4z"/>
	</g>
	<g>
		<path class="st0" d="M870.7,207.8c-0.1,19.8,7.2,32.8,23.3,40.1c8.6,3.9,17.5,2.3,26.1-0.7c6.2-2.2,12.2-4.8,17-9.7
			c2.4-2.5,5.3-2.2,8.1-0.2c4.1,2.9,8.2,5.8,12.4,8.7c5.3,3.6,6,8.9,1.5,13.4c-8.9,8.8-19.9,13.8-31.6,17.8
			c-5.8,1.9-11.7,3.4-17.6,3.6c-6.8,0.2-13.8-0.6-20.5-2.2c-17-4-32.1-11.9-43.7-25.4c-10.2-11.7-16.3-25.1-18.8-40.6
			c-3-19,1.9-36.1,11.1-52.1c6-10.4,14.4-19.5,24.8-25.6c6.7-4,13.9-8.3,22-9.3c16-2,32.1-3.5,47.5,3.5c3.9,1.8,7.3,4.5,10.4,7.7
			c4.6,4.9,10.1,8.8,14.8,13.7c12.2,12.5,15.3,27,11.7,43.5c-1.4,6.5-6.4,10.4-11,14.2c-9.5,8-20.7,13.2-32.5,16.9
			c-8.6,2.7-23-1.3-28.1-8.5c-3.5-4.9-3.5-10.7-1.5-16c2.6-6.7,6.2-7.1,12.7-3.8c5.4,2.7,11.7,1.6,17.4,0.5
			c4.4-0.9,8.6-2.9,12.9-4.4c1.7-0.6,2.7-1.8,3.8-3.1c0.9-1.1,1.6-2.2,1.1-3.6c-0.6-1.7-2.2-1.2-3.5-1.2c-3.7-0.1-7.3,0-11,0
			c-3.2-0.1-5.5-1.2-5.4-5c0.1-3.7,2.4-4.1,5.4-4c3.2,0.1,6.3,0,9.5,0.1c2.5,0.1,4.2-0.5,4.2-3.5c0-2.8,0.1-5.5-3.7-5.8
			c-2.7-0.2-5.3-0.1-8-0.2c-1.5,0-3-0.1-4.4-0.8c-2-1-3.2-2.5-2.9-4.7c0.3-2.4,2.5-2.7,4.1-2.9c3.6-0.3,7.3-0.2,11-0.1
			c1.6,0,3-0.2,3.6-1.9c0.6-1.8-0.5-3-1.7-3.8c-8.8-6.1-18.4-9.7-29.2-8.2c-6.7,1-10.3,6.2-12.6,11.9c-3.4,8.6-7.8,15.5-13.7,20.9
			C875.9,185.8,869.6,195.1,870.7,207.8z"/>
		<path class="st0" d="M907.5,281.3c-5.9,0-12.2-0.8-18.3-2.2c-18.5-4.4-32.9-12.8-44-25.6c-10.2-11.8-16.4-25.2-18.9-40.8
			c-2.8-17.4,0.9-34.6,11.1-52.4c6.3-10.9,14.9-19.8,25-25.8l0.5-0.3c6.8-4,13.7-8.1,21.7-9.1c17.2-2.1,32.7-3.3,47.7,3.6
			c3.7,1.7,7.2,4.3,10.5,7.9c2.4,2.6,5.1,4.9,7.8,7.2c2.4,2.1,4.8,4.2,7.1,6.5c11.8,12,15.7,26.4,11.9,44c-1.4,6.3-6,10.1-10.4,13.8
			l-0.8,0.7c-8.6,7.2-19.3,12.8-32.7,17c-9.1,2.9-23.6-1.5-28.7-8.6c-3.3-4.7-3.9-10.5-1.5-16.5c1.2-3.2,2.7-5,4.6-5.8
			c2.1-0.8,4.7-0.3,8.8,1.7c5.4,2.7,11.9,1.5,17.1,0.5c2.9-0.6,5.8-1.7,8.6-2.8c1.4-0.6,2.9-1.1,4.3-1.6c1.5-0.5,2.4-1.6,3.4-2.8
			l0.1-0.1c0.9-1.1,1.4-2,1-3.1c-0.4-1-1-1-2.2-0.9c-0.3,0-0.6,0-0.8,0c-1.7,0-3.4,0-5.1,0c-1.9,0-3.9,0-5.9,0
			c-2.1,0-3.6-0.6-4.6-1.6c-0.9-0.9-1.3-2.2-1.2-3.9c0-1.6,0.4-2.7,1.2-3.4c1.2-1.1,2.9-1.2,4.7-1.1c1.7,0.1,3.5,0.1,5.2,0
			c1.4,0,2.9,0,4.3,0c1.5,0,2.4-0.2,2.9-0.7c0.5-0.5,0.7-1.2,0.7-2.3v-0.1c0-3.1-0.1-4.9-3.2-5.1c-2.1-0.1-4.3-0.1-6.4-0.2l-1.6,0
			c-1.5,0-3-0.1-4.6-0.9c-2.4-1.2-3.4-3-3.2-5.2c0.3-2.9,3.3-3.2,4.5-3.3c3-0.3,6.1-0.2,9-0.2c0.7,0,1.3,0,2,0
			c1.7,0,2.6-0.2,3.1-1.6c0.4-1.2,0-2.2-1.5-3.2c-9.8-6.8-19.3-9.5-28.9-8.1c-5.4,0.8-9.4,4.6-12.2,11.6c-3.5,8.9-8,15.8-13.8,21.1
			c-11.3,10.4-15.7,19.5-14.7,30.4l0,0c-0.1,19.9,7.2,32.5,23,39.7c9.1,4.1,18.6,1.8,25.7-0.7c5.9-2.1,12-4.7,16.8-9.6
			c2.4-2.5,5.5-2.6,8.7-0.3l2.7,1.9c3.2,2.2,6.5,4.6,9.7,6.8c2.8,1.9,4.4,4.3,4.7,6.9c0.2,2.5-0.8,5-3.1,7.3
			c-9.8,9.7-22.1,14.6-31.8,17.9c-6.9,2.3-12.5,3.5-17.8,3.7C909.1,281.2,908.3,281.3,907.5,281.3z M905.9,124.4
			c-6.8,0-13.9,0.7-21.2,1.6c-7.7,1-14.6,5-21.3,8.9l-0.5,0.3c-9.9,5.8-18.4,14.6-24.6,25.4c-10.1,17.7-13.7,34.6-11,51.8
			c2.5,15.5,8.6,28.7,18.7,40.4c11,12.7,25.2,20.9,43.5,25.3c6.9,1.6,13.9,2.4,20.3,2.1c5.1-0.2,10.7-1.3,17.5-3.6
			c9.6-3.2,21.8-8.1,31.4-17.6c2.1-2,3-4.3,2.8-6.5c-0.2-2.3-1.7-4.4-4.2-6.1c-3.3-2.2-6.6-4.5-9.8-6.8l-2.7-1.9
			c-2-1.4-4.9-2.5-7.4,0.2c-4.9,5.1-11.1,7.7-17.2,9.8c-7.3,2.6-17,4.9-26.5,0.7c-16.2-7.3-23.7-20.2-23.6-40.5
			c-1.3-14.2,6.9-23.7,15-31.2c5.7-5.2,10.1-12,13.5-20.7c2.9-7.4,7.2-11.4,13-12.3c9.9-1.4,19.5,1.3,29.6,8.3
			c0.7,0.5,2.8,1.9,1.9,4.4c-0.8,2.1-2.5,2.3-4.1,2.3c-0.7,0-1.3,0-2,0c-2.9-0.1-6-0.1-8.9,0.1c-1.8,0.2-3.5,0.6-3.7,2.4
			c-0.2,1.8,0.7,3.2,2.6,4.2c1.3,0.7,2.8,0.8,4.1,0.8l1.6,0c2.1,0,4.3,0,6.4,0.2c4.2,0.3,4.2,3.4,4.2,6.1v0.1c0,1.4-0.3,2.4-1,3.1
			c-0.9,0.9-2.4,1-3.7,1c-1.4,0-2.9,0-4.3,0c-1.7,0-3.5,0-5.2,0c-1.5-0.1-3.1,0-4,0.8c-0.6,0.6-0.9,1.4-0.9,2.7c0,1.4,0.3,2.5,1,3.2
			c0.8,0.8,2,1.2,3.9,1.3c1.9,0,3.9,0,5.8,0c1.7,0,3.4,0,5.2,0c0.2,0,0.5,0,0.7,0c1.1-0.1,2.5-0.2,3.2,1.5c0.6,1.6-0.2,2.9-1.2,4.1
			l-0.1,0.1c-1,1.2-2.1,2.5-3.9,3.1c-1.4,0.5-2.9,1.1-4.3,1.6c-2.8,1.1-5.7,2.3-8.7,2.8c-5.3,1-12,2.3-17.7-0.5
			c-3.7-1.9-6.1-2.4-8-1.7c-1.6,0.6-2.9,2.3-4,5.2c-2.2,5.7-1.7,11.2,1.4,15.6c4.8,6.7,19,11,27.6,8.3c13.2-4.2,23.8-9.7,32.3-16.8
			l0.8-0.7c4.3-3.6,8.7-7.3,10-13.3c3.7-17.2,0-31.3-11.6-43.1c-2.2-2.3-4.7-4.4-7-6.4c-2.6-2.3-5.4-4.7-7.8-7.3
			c-3.3-3.5-6.6-6-10.2-7.6C923.5,125.7,914.9,124.4,905.9,124.4z"/>
	</g>
	<g>
		<path class="st0" d="M810.3,167c0,33,0,66,0,99c0,9.6-1.6,11.2-11.4,11.2c-6.8,0-13.7,0.1-20.5,0c-5.7-0.1-7.4-1.7-7.9-7.3
			c-0.2-1.7-0.1-3.3-0.1-5c0-65.8,0-131.6,0-197.4c0-2,0.1-4,0.4-6c0.5-3.6,2.6-5.8,6.3-5.8c8.7-0.1,17.3-0.3,26-0.1
			c4.3,0.1,6.6,2.9,7.1,7c0.2,1.8,0.2,3.7,0.2,5.5C810.3,101,810.3,134,810.3,167z"/>
		<path class="st0" d="M787.2,277.7c-2.9,0-5.9,0-8.8,0c-5.9-0.1-7.8-1.8-8.4-7.8c-0.1-1.4-0.1-2.8-0.1-4.1l0-0.9
			c0-65.8,0-131.6,0-197.4c0-2.2,0.1-4.2,0.4-6c0.5-4,3-6.2,6.8-6.3l2.7,0c7.6-0.1,15.5-0.2,23.3-0.1c4.2,0.1,7,2.8,7.6,7.5
			c0.2,1.5,0.2,3,0.2,4.5l0,1.1c0,27.5,0,55,0,82.5l0,43.5c0,24,0,48,0,72c0,10-1.8,11.7-11.9,11.7c-1.8,0-3.6,0-5.3,0
			C791.5,277.7,789.3,277.7,787.2,277.7z M794.6,56c-5,0-10,0.1-14.9,0.1l-2.7,0c-3.4,0-5.3,1.9-5.8,5.4c-0.2,1.8-0.4,3.7-0.4,5.9
			c0,65.8,0,131.6,0,197.4l0,0.9c0,1.3,0,2.7,0.1,4c0.5,5.5,2,6.8,7.4,6.9c5,0.1,10.2,0.1,15.2,0c1.8,0,3.6,0,5.3,0
			c9.5,0,10.9-1.4,10.9-10.7c0-24,0-48,0-72l0-43.5c0-27.5,0-55,0-82.5l0-1.1c0-1.4,0-2.9-0.2-4.4c-0.5-4.2-2.9-6.5-6.6-6.6
			C800.2,56,797.4,56,794.6,56z"/>
	</g>
	<g>
		<path class="st0" d="M546.1,210.3c0-18.8,0-37.6,0-56.4c0-8.3,2.3-10.6,10.7-10.6c6.2,0,12.3,0,18.5,0c7.8,0.1,11,3.2,11,10.8
			c0,37.6,0,75.3,0,112.9c0,8.4-1.9,10.2-10.3,10.3c-7,0-14,0.1-21,0c-6.8-0.1-9-2.1-9-9C546,248.9,546.1,229.6,546.1,210.3z"/>
		<path class="st0" d="M564.9,277.7c-3.2,0-6.6,0-9.9,0c-7.2-0.1-9.5-2.4-9.5-9.5c0-13.8,0-27.8,0-41.4l0-16.6l0-15.5
			c0-13.7,0-27.3,0-41c0-8.6,2.5-11.1,11.2-11.1c6.6,0,12.5,0,18.5,0c8.1,0.1,11.5,3.5,11.5,11.3c0,37.6,0,75.3,0,112.9
			c0,8.7-2,10.7-10.8,10.8C572.6,277.7,568.8,277.7,564.9,277.7z M567,143.7c-3.3,0-6.6,0-10.1,0c-8.1,0-10.2,2.1-10.2,10.1
			c0,13.6,0,27.3,0,40.9l0,15.5l0,16.6c0,13.6,0,27.6,0,41.4c0,6.5,1.9,8.4,8.5,8.5c7.3,0.1,14.6,0,21,0c8.1,0,9.8-1.7,9.8-9.8
			c0-37.6,0-75.3,0-112.9c0-7.3-3.1-10.3-10.5-10.3C572.5,143.7,569.8,143.7,567,143.7z"/>
	</g>
	<g>
		<path class="st0" d="M566.1,90.1c4.2,0,8.3-0.2,12.5,0c5.4,0.3,7.6,2.4,7.7,7.7c0.2,6.8,0.2,13.6,0,20.4c-0.2,5.9-3.5,9.3-9.4,9.4
			c-7.3,0.1-14.6,0.1-21.9,0c-6.4-0.1-8.8-2.4-8.9-8.8c-0.1-6.8-0.1-13.6,0-20.4c0.1-6.2,2.3-8.2,8.5-8.4
			C558.5,90,562.3,90,566.1,90.1C566.1,90,566.1,90.1,566.1,90.1z"/>
		<path class="st0" d="M565.9,128.2c-3.7,0-7.3,0-10.9-0.1c-6.7-0.1-9.2-2.6-9.4-9.2c-0.1-6.2-0.1-12.9,0-20.4
			c0.1-6.4,2.5-8.7,9-8.9c2.6-0.1,5.3,0,7.9,0c1.2,0,2.4,0,3.6,0l0.5,0c1.1,0,2.2,0,3.3,0c2.8,0,5.8-0.1,8.7,0.1
			c5.7,0.3,8,2.6,8.2,8.2c0.2,7.1,0.2,14,0,20.5c-0.2,6.2-3.8,9.7-9.9,9.8C573.2,128.2,569.6,128.2,565.9,128.2z M559,90.5
			c-1.4,0-2.9,0-4.3,0c-6.1,0.1-8,2-8.1,7.9c-0.1,7.6-0.1,14.2,0,20.4c0.1,6.1,2.2,8.1,8.4,8.3c7.1,0.1,14.5,0.1,21.9,0
			c5.6-0.1,8.7-3.3,8.9-8.9c0.2-6.5,0.2-13.3,0-20.4c-0.1-5-2.1-7-7.2-7.2c-2.9-0.1-5.8-0.1-8.6-0.1c-1.3,0-2.6,0-3.8,0l-0.5,0
			c-1,0-2,0-3.1,0C561.4,90.5,560.2,90.5,559,90.5z"/>
	</g>
	<g>
		<path class="st0" d="M1258,241.9c3.8,0,7.7-0.2,11.5,0.1c3.4,0.2,4.9-0.6,4.5-4.3c-0.3-3-0.1-6,0-9c0.1-3.9,0.7-8-5.6-6.7
			c-2.2,0.5-2.2-1.3-2.2-2.9c0-1.6,0-3,2.2-3c5.8,0,11.7,0.1,17.5,0c2.4,0,2.1,1.6,2.1,3.1c0,1.5,0.2,3.3-2.1,2.9
			c-5.4-1-5.3,2.2-5.2,6c0.2,12.2,0.1,24.3,0,36.5c0,2.9,0.3,5,3.9,4.3c2.4-0.4,3.6,0.3,3.5,3.1c-0.1,2.7-1.4,2.9-3.4,2.8
			c-5.2-0.1-10.3-0.1-15.5,0c-2.6,0.1-3-1.1-3-3.3c0-2.4,1.1-3,3.1-2.7c4.1,0.7,5.2-1.2,4.8-4.9c-0.5-5.2,2.2-12.3-1.1-15.3
			c-2.9-2.6-9.8-0.9-14.9-0.8c-5.3,0.1-12.3-2.3-15.3,1c-2.6,2.9-0.6,9.8-0.9,14.9c-0.2,3.6,0.4,5.8,4.7,5c2.2-0.4,2.9,0.7,2.8,2.8
			c-0.1,1.9-0.3,3.2-2.7,3.1c-5.5-0.1-11-0.1-16.5,0c-2.6,0-2.3-1.7-2.4-3.4c-0.1-1.9,0.5-3,2.5-2.6c4.7,0.9,4.9-1.7,4.9-5.4
			c-0.2-12.3-0.2-24.7,0-37c0-3.3-0.5-5.1-4.2-4.5c-2.3,0.4-3.2-0.5-3.2-3c0-2.5,1-3.1,3.3-3c5,0.1,10,0.1,15,0
			c2.2,0,3.4,0.3,3.4,2.9c0,2.4-0.7,3.5-3.1,3c-4.2-0.8-4.6,1.4-4.4,4.8c0.3,4.8-1.6,11.3,0.9,14c2.8,3.2,9.4,0.7,14.3,1
			C1257.4,241.9,1257.7,241.9,1258,241.9z"/>
		<path class="st0" d="M1269,275.4c-1.1,0-1.9-0.2-2.4-0.7c-0.7-0.7-0.9-1.7-0.9-3.1c0-1.3,0.3-2.1,0.9-2.7c0.6-0.5,1.5-0.7,2.7-0.5
			c1.7,0.3,2.8,0.1,3.5-0.5c0.7-0.7,0.9-1.9,0.7-3.9c-0.2-1.9,0-4,0.3-6.1c0.4-3.7,0.8-7.1-1.2-8.9c-2-1.8-6.2-1.4-10.2-1
			c-1.5,0.1-3,0.3-4.3,0.3c-1.7,0-3.5-0.2-5.3-0.4c-3.8-0.4-7.8-0.9-9.6,1.2c-1.6,1.8-1.3,5.4-1,9c0.2,1.9,0.3,3.9,0.2,5.7
			c-0.1,2.3,0.1,3.5,0.8,4.1c0.6,0.6,1.7,0.7,3.3,0.4c1.1-0.2,1.9-0.1,2.5,0.4c0.6,0.6,0.9,1.5,0.9,2.9c-0.1,2-0.4,3.6-3.2,3.6
			c-4.8-0.1-10.1-0.1-16.5,0c-2.8,0-2.8-1.8-2.9-3.2c0-0.2,0-0.4,0-0.6c-0.1-1.3,0.2-2.1,0.8-2.7c0.5-0.5,1.3-0.6,2.3-0.4
			c1.6,0.3,2.7,0.2,3.3-0.3c0.9-0.8,1-2.5,0.9-4.5c-0.2-11.9-0.2-24.4,0-37c0-2.1-0.2-3.1-0.8-3.6c-0.5-0.5-1.5-0.6-2.8-0.3
			c-1.3,0.2-2.2,0.1-2.8-0.5c-0.7-0.6-1-1.5-1-3c0-1.3,0.3-2.2,0.9-2.7c0.7-0.7,1.9-0.8,2.9-0.8c4.6,0.1,9.5,0.1,15,0
			c1.3,0,2.4,0.1,3.1,0.8c0.6,0.6,0.8,1.4,0.8,2.6c0,1.6-0.3,2.6-1,3.1c-0.6,0.5-1.5,0.6-2.7,0.4c-1.5-0.3-2.5-0.2-3.1,0.3
			c-0.8,0.7-0.8,2.4-0.7,3.9c0.1,1.7,0,3.5-0.2,5.3c-0.3,3.3-0.5,6.7,0.9,8.4c1.7,1.9,5.1,1.5,8.6,1.2c1.8-0.2,3.7-0.4,5.4-0.3
			c0.2,0,0.4,0,0.6,0l0.3,0c1.2,0,2.3,0,3.5,0c2.6,0,5.4-0.1,8,0.1c1.8,0.1,2.9-0.1,3.4-0.7c0.5-0.6,0.7-1.6,0.6-3.1
			c-0.3-2.7-0.2-5.4-0.1-8l0.1-1.7c0.1-2.2,0.2-4.2-0.9-5.1c-0.8-0.6-2.1-0.8-4.1-0.3c-0.9,0.2-1.5,0.1-2-0.3
			c-0.8-0.7-0.8-2-0.8-3.1c0-1.1,0-2.2,0.7-2.9c0.4-0.4,1.1-0.6,2-0.6c0,0,0,0,0,0c6.5,0.1,12.2,0.1,17.5,0c0.9,0,1.6,0.2,2,0.6
			c0.6,0.6,0.6,1.5,0.6,2.4c0,0.2,0,0.3,0,0.5l0,0.2c0,1,0,2.2-0.7,2.8c-0.5,0.4-1.1,0.5-2,0.3c-1.8-0.3-3-0.2-3.7,0.4
			c-1,0.9-1,2.8-1,5.1l0,0.1c0.1,10.6,0.1,21.9,0,36.5c0,1.8,0.1,3,0.8,3.5c0.5,0.4,1.3,0.5,2.6,0.3c1.5-0.2,2.5-0.1,3.1,0.5
			c0.7,0.6,1,1.6,1,3.1c-0.1,3.1-1.8,3.4-4,3.3c-4.7-0.1-10.2-0.1-15.5,0C1269.1,275.4,1269,275.4,1269,275.4z M1268.3,269.3
			c-0.5,0-0.9,0.1-1.1,0.3c-0.4,0.3-0.6,1-0.5,1.9c0,1.3,0.2,2,0.6,2.4c0.4,0.3,1,0.5,1.9,0.5c5.3-0.2,10.8-0.1,15.5,0
			c2.1,0,2.9-0.2,2.9-2.3c0-1.2-0.2-2-0.6-2.4c-0.4-0.4-1.2-0.5-2.3-0.3c-1.6,0.3-2.7,0.1-3.4-0.5c-1.1-0.9-1.1-2.6-1.1-4.3
			c0.1-14.6,0.1-25.9,0-36.5l0-0.1c0-2.4-0.1-4.7,1.3-5.8c0.9-0.8,2.4-1,4.5-0.6c0.6,0.1,1,0.1,1.2-0.1c0.4-0.3,0.4-1.2,0.4-2l0-0.2
			c0-0.2,0-0.3,0-0.5c0-0.7,0-1.4-0.3-1.7c-0.2-0.2-0.7-0.3-1.3-0.3c-5.2,0.1-11,0.1-17.5,0c-0.7,0-1.1,0.1-1.3,0.4
			c-0.4,0.4-0.4,1.2-0.4,2.1c0,0.9,0,2,0.4,2.4c0.2,0.2,0.6,0.2,1.2,0.1c2.3-0.5,3.9-0.3,4.9,0.6c1.5,1.2,1.4,3.6,1.3,6l-0.1,1.7
			c-0.1,2.6-0.2,5.3,0.1,7.9c0.2,1.9-0.1,3.1-0.8,3.9c-0.8,0.8-2.1,1.1-4.2,1c-2.6-0.2-5.3-0.1-8-0.1c-1.2,0-2.3,0-3.5,0l-0.3,0
			c-0.2,0-0.5,0-0.7,0c-1.6-0.1-3.4,0.1-5.2,0.3c-3.6,0.4-7.4,0.8-9.5-1.5c-1.8-2-1.5-5.5-1.2-9.1c0.1-1.8,0.3-3.6,0.2-5.1
			c-0.1-1.9-0.1-3.7,1.1-4.8c0.8-0.7,2.1-0.9,3.9-0.6c0.9,0.2,1.5,0.1,1.9-0.2c0.4-0.4,0.6-1.1,0.6-2.3c0-1-0.2-1.6-0.5-1.9
			c-0.4-0.4-1.1-0.5-2.3-0.5c-5.5,0.1-10.4,0.1-15,0c-1.2,0-1.8,0.1-2.2,0.5c-0.4,0.4-0.5,1-0.6,2c0,1.1,0.2,1.9,0.6,2.2
			c0.4,0.3,1,0.4,2,0.2c1.7-0.3,2.9-0.1,3.6,0.6c1,0.9,1.2,2.4,1.2,4.4c-0.2,12.6-0.2,25.1,0,37c0,2.3,0,4.3-1.3,5.3
			c-0.9,0.7-2.2,0.9-4.2,0.6c-0.7-0.1-1.2-0.1-1.5,0.2c-0.3,0.3-0.5,0.9-0.4,1.9c0,0.2,0,0.5,0,0.7c0,1.4,0,2.3,1.9,2.2
			c6.4-0.1,11.7-0.1,16.5,0c1.9,0,2.1-0.7,2.2-2.6c0-1.1-0.1-1.8-0.5-2.1c-0.3-0.3-0.9-0.4-1.7-0.2c-1.9,0.4-3.3,0.2-4.1-0.6
			c-1.2-1.1-1.3-3.1-1.2-4.9c0.1-1.7-0.1-3.6-0.2-5.5c-0.3-3.9-0.6-7.6,1.2-9.7c2.2-2.5,6.4-2,10.5-1.6c1.7,0.2,3.5,0.4,5.1,0.4
			c1.3,0,2.8-0.2,4.3-0.3c4.3-0.4,8.7-0.8,11,1.2c2.3,2.1,1.9,5.8,1.5,9.7c-0.2,2-0.4,4.1-0.3,5.9c0.2,2.4-0.1,3.9-1.1,4.8
			c-0.9,0.8-2.3,1.1-4.3,0.7C1268.8,269.4,1268.6,269.3,1268.3,269.3z"/>
	</g>
	<g>
		<path class="st0" d="M1411,260.7c0-13-0.1-24.6,0-36.2c0-3.1-2.1-2.4-3.8-2.4c-2.1,0-4.2,0.5-4.2-3.1c0.1-3.7,2.4-2.9,4.4-2.9
			c4.7-0.1,9.3,0.1,14-0.1c2.6-0.1,2.9,1.2,3,3.4c0.1,2.4-1.1,2.9-3,2.6c-3.7-0.6-4.3,1.2-4.3,4.5c0.2,14.5,0.1,29,0,43.5
			c0,1.6,1.2,3.9-1.1,4.8c-2.7,1.1-3.7-1.5-4.9-3.1c-9.7-12.9-19.5-25.8-29.2-38.6c-1-1.3-2-2.6-3.1-3.9c-1.5,1.1-0.8,2.6-0.8,3.7
			c-0.1,10.7,0,21.3-0.1,32c0,2.7,0.2,4.6,3.6,4.1c2.1-0.3,4.3-0.6,4.2,3c-0.1,3.6-2.4,2.9-4.5,2.9c-4.7,0-9.3-0.1-14,0
			c-2.2,0-3.4-0.3-3.4-2.9c0-2.4,0.8-3.4,3.2-3c4,0.7,4.6-1.3,4.6-4.8c-0.2-12.5-0.2-25,0-37.5c0-3.2-0.4-5.2-4.2-4.6
			c-2.5,0.4-3.5-0.4-3.5-3.2c0-2.8,1.6-2.6,3.5-2.8c6.6-0.9,11.3,1,15.3,7C1391.3,235.5,1400.9,247.3,1411,260.7z"/>
		<path class="st0" d="M1414.8,275.6c-1.7,0-2.7-1.5-3.5-2.7c-0.2-0.3-0.4-0.6-0.6-0.9c-6.4-8.5-12.8-16.9-19.2-25.4l-10-13.2
			c-0.7-0.9-1.4-1.8-2.1-2.7l-0.6-0.8c-0.5,0.6-0.4,1.2-0.3,2.1c0,0.3,0.1,0.6,0.1,1c0,4.7,0,9.4,0,14.1c0,5.9,0,11.9-0.1,17.9
			c0,1.4,0,2.7,0.7,3.2c0.4,0.4,1.2,0.5,2.4,0.3c1.3-0.2,2.8-0.4,3.8,0.5c0.7,0.6,1,1.6,0.9,3c0,1.3-0.3,2.2-0.9,2.7
			c-0.8,0.8-2,0.7-3.1,0.7c-0.3,0-0.6,0-0.9,0c-2,0-3.9,0-5.9,0c-2.7,0-5.4,0-8.1,0c-1.3,0-2.3-0.1-3-0.8c-0.6-0.6-0.8-1.4-0.8-2.7
			c0-1.5,0.3-2.5,1-3.1c0.6-0.5,1.5-0.7,2.7-0.4c1.5,0.3,2.5,0.1,3.1-0.4c0.7-0.6,0.9-1.7,0.9-3.9c-0.2-11.5-0.2-23.8,0-37.5
			c0-1.8-0.1-3.1-0.8-3.7c-0.5-0.5-1.5-0.6-2.8-0.3c-1.4,0.2-2.4,0.1-3.1-0.5c-0.7-0.6-1-1.6-1-3.2c0-2.9,1.7-3.1,3.3-3.2
			c0.2,0,0.4,0,0.7-0.1c7-0.9,11.8,1.2,15.8,7.2c6,8.8,12.4,17.2,19.3,26.1c2.6,3.4,5.2,6.8,7.9,10.4c0-3.1,0-6.1,0-9.1
			c0-8.9,0-17.3,0-25.6c0-0.8-0.1-1.4-0.4-1.6c-0.4-0.4-1.1-0.3-1.9-0.3c-0.3,0-0.6,0-0.9,0c-0.3,0-0.5,0-0.8,0
			c-1.1,0-2.3,0-3.1-0.8c-0.6-0.6-0.8-1.5-0.8-2.8c0-1.3,0.3-2.2,0.9-2.8c0.8-0.8,1.9-0.7,3-0.6c0.3,0,0.6,0,0.9,0
			c1.8,0,3.7,0,5.5,0c2.8,0,5.7,0,8.5-0.1c3.1-0.1,3.4,1.7,3.5,3.8c0,1.2-0.2,2.1-0.8,2.6c-0.6,0.5-1.5,0.7-2.8,0.5
			c-1.4-0.2-2.3-0.1-2.9,0.4c-0.6,0.5-0.9,1.6-0.9,3.6c0.2,14.8,0.1,29.6,0,43.5c0,0.4,0.1,0.8,0.1,1.2c0.2,1.4,0.5,3.2-1.5,4
			C1415.7,275.5,1415.2,275.6,1414.8,275.6z M1378.9,228.4l1.3,1.6c0.7,0.9,1.4,1.8,2.1,2.7l10,13.2c6.4,8.5,12.8,17,19.2,25.4
			c0.2,0.3,0.4,0.6,0.6,0.9c1.1,1.7,2,2.7,3.7,2c1.2-0.5,1.1-1.4,0.9-3c-0.1-0.5-0.2-1-0.1-1.4c0.1-13.8,0.2-28.7,0-43.5
			c0-1.7,0.1-3.5,1.2-4.4c0.8-0.7,2-0.9,3.7-0.6c1,0.2,1.6,0.1,2-0.3c0.4-0.3,0.5-0.9,0.5-1.9c-0.1-2.2-0.3-3-2.5-2.9
			c-2.8,0.1-5.7,0.1-8.5,0.1c-1.8,0-3.6,0-5.5,0c-0.3,0-0.7,0-1,0c-0.9-0.1-1.8-0.1-2.3,0.4c-0.4,0.4-0.6,1-0.6,2.1
			c0,1,0.2,1.7,0.5,2.1c0.5,0.5,1.4,0.5,2.4,0.5c0.3,0,0.5,0,0.8,0c0.3,0,0.6,0,0.9,0c0.9-0.1,1.9-0.1,2.6,0.6
			c0.5,0.5,0.8,1.3,0.7,2.4c-0.1,8.4-0.1,16.7,0,25.6c0,3.4,0,7,0,10.6v1.5l-0.9-1.2c-3-4-6-7.8-8.8-11.6
			c-6.9-8.9-13.3-17.3-19.3-26.1c-3.9-5.7-8.2-7.6-14.9-6.8c-0.2,0-0.5,0.1-0.7,0.1c-1.6,0.2-2.3,0.2-2.4,2.2c0,1.2,0.2,2,0.6,2.4
			c0.4,0.4,1.2,0.5,2.2,0.3c1.7-0.3,2.8-0.1,3.6,0.6c1,0.9,1.2,2.4,1.2,4.5c-0.2,13.7-0.2,25.9,0,37.5c0,2.2-0.2,3.8-1.3,4.7
			c-0.8,0.7-2.1,0.9-3.9,0.6c-0.9-0.2-1.5-0.1-1.9,0.2c-0.4,0.4-0.6,1.1-0.6,2.3c0,1,0.2,1.6,0.5,2c0.4,0.4,1,0.5,2.3,0.5
			c2.7-0.1,5.5,0,8.1,0c2,0,3.9,0,5.9,0c0.3,0,0.7,0,1,0c1,0,1.9,0.1,2.4-0.4c0.4-0.4,0.6-1,0.6-2c0-1.1-0.2-1.9-0.6-2.2
			c-0.6-0.6-1.9-0.4-3-0.3c-1.5,0.2-2.5,0-3.2-0.6c-1-0.8-1-2.3-1-4c0.1-6,0.1-12,0.1-17.9c0-4.7,0-9.4,0-14.1c0-0.3,0-0.5-0.1-0.8
			c-0.1-1-0.3-2.3,1.1-3.3L1378.9,228.4z"/>
	</g>
	<g>
		<path class="st0" d="M1003.5,246.3c8.4-8.2,16.2-15.9,24-23.6c-1.1-1.4-2.7-0.7-4-0.6c-2.4,0.1-2.7-1-2.7-3c0-1.9,0.3-3.1,2.7-3.1
			c5.7,0.1,11.3,0.1,17,0c2.3,0,2.8,1,2.8,3c0,1.9-0.3,3.4-2.7,3c-3.3-0.6-5.2,1.3-7.2,3.4c-4.4,4.5-8.9,9-13.4,13.4
			c-1.6,1.5-1.9,2.6-0.5,4.6c5.2,7.5,10.3,15.1,15.2,22.9c1.6,2.5,3.4,2.8,5.8,2.6c2-0.1,3.4,0,3.4,2.8c0,2.9-1.3,3-3.6,3.3
			c-5.7,0.6-9.5-0.9-12.4-6.3c-3.8-7-8.7-13.4-12.9-20.2c-1.6-2.7-2.5-2.2-4.7-0.4c-5.6,4.4-7.8,9.8-6.9,16.9c0.3,2.8,0.7,4.4,3.9,4
			c2-0.2,3.8-0.5,3.9,2.8c0,3.5-1.9,3.2-4.1,3.2c-4.8-0.1-9.7-0.1-14.5,0c-2.3,0.1-3.3-0.6-3.3-3.1c-0.1-2.6,1.2-3.2,3.3-2.9
			c3.5,0.5,4.5-0.9,4.4-4.4c-0.2-12.7-0.2-25.3,0-38c0-3.3-0.6-5.1-4.3-4.5c-2,0.3-3.5,0-3.5-2.8c0-2.9,1.3-3.3,3.6-3.2
			c5,0.1,10,0.1,15,0c2.2-0.1,3.3,0.4,3.3,3c0,2.5-0.8,3.4-3.2,3c-4-0.7-4.7,1.2-4.6,4.7C1003.7,233.1,1003.5,239.4,1003.5,246.3z"
			/>
		<path class="st0" d="M1038.2,275.6c-4.9,0-8.2-2.1-10.7-6.7c-2.3-4.3-5.1-8.4-7.7-12.3c-1.7-2.5-3.5-5.2-5.1-7.8
			c-0.6-1-1.1-1.5-1.6-1.6c-0.6-0.1-1.3,0.5-2.4,1.3c-5.4,4.3-7.6,9.5-6.7,16.5c0.2,1.6,0.4,2.7,1,3.2c0.5,0.4,1.2,0.5,2.3,0.3
			c1.3-0.2,2.6-0.3,3.5,0.5c0.6,0.5,0.9,1.5,0.9,2.8c0,1.4-0.3,2.3-0.9,2.9c-0.8,0.8-2.1,0.8-3.3,0.8l-0.4,0c-4.2,0-9.5-0.1-14.5,0
			c-1,0-2.2,0-2.9-0.8c-0.6-0.6-0.9-1.4-0.9-2.8c0-1.4,0.3-2.3,0.9-2.9c0.7-0.6,1.6-0.7,3-0.5c1.5,0.2,2.4,0.1,3-0.4
			c0.6-0.5,0.9-1.6,0.9-3.5c-0.2-12-0.2-24.4,0-38c0-2-0.2-3.1-0.8-3.6c-0.5-0.5-1.5-0.6-2.9-0.4c-1,0.2-2.2,0.2-3.1-0.5
			c-0.6-0.5-1-1.5-1-2.8c0-1.4,0.3-2.3,0.9-2.9c0.7-0.7,1.9-0.9,3.3-0.8c4.9,0.1,9.9,0.1,15,0c1.1,0,2.3,0,3,0.8
			c0.6,0.6,0.8,1.4,0.8,2.7c0,1.5-0.3,2.5-1,3c-0.6,0.5-1.5,0.7-2.8,0.4c-1.5-0.3-2.5-0.2-3.1,0.4c-0.7,0.6-0.9,1.8-0.8,3.9
			c0.2,4.4,0.1,8.8,0.1,13.5c0,1.6,0,3.2,0,4.9l22.8-22.4c-0.6-0.4-1.3-0.4-2.3-0.2c-0.3,0.1-0.7,0.1-1,0.1
			c-1.1,0.1-1.9-0.1-2.5-0.6c-0.7-0.6-0.8-1.6-0.8-2.8c0-1.1,0.1-2.2,0.8-2.9c0.5-0.5,1.3-0.7,2.4-0.7c5.4,0.1,11,0.1,17,0
			c1.2,0,2,0.2,2.5,0.7c0.7,0.7,0.8,1.8,0.8,2.8c0,1.1-0.1,2.4-0.9,3.1c-0.5,0.5-1.3,0.6-2.4,0.4c-3.1-0.6-4.9,1.3-6.8,3.3
			c-5,5.2-9.3,9.5-13.5,13.4c-1.4,1.3-1.7,2.1-0.5,3.9c4.3,6.2,9.9,14.3,15.2,22.9c1.4,2.2,3,2.5,5.4,2.4c1.1-0.1,2.3-0.1,3.1,0.6
			c0.6,0.5,0.9,1.4,0.9,2.7c0,3.3-1.7,3.5-4,3.7C1039.7,275.5,1038.9,275.6,1038.2,275.6z M1012.9,246.1c0.1,0,0.2,0,0.3,0
			c0.8,0.1,1.4,0.8,2.2,2.1c1.6,2.6,3.4,5.3,5.1,7.8c2.7,4,5.5,8.1,7.8,12.4c2.7,5,6.1,6.7,11.9,6.1c2.4-0.3,3.2-0.4,3.2-2.8
			c0-1-0.2-1.6-0.5-1.9c-0.4-0.4-1.2-0.4-2.4-0.4c-2.6,0.2-4.7-0.2-6.3-2.8c-5.3-8.5-10.9-16.7-15.2-22.8c-1.6-2.3-1-3.7,0.6-5.2
			c4.1-4,8.4-8.2,13.4-13.4c1.9-2,4.1-4.2,7.7-3.6c0.7,0.1,1.2,0.1,1.5-0.2c0.5-0.4,0.5-1.3,0.5-2.3c0-1.1-0.1-1.7-0.5-2.1
			c-0.3-0.3-0.9-0.5-1.8-0.4c-6,0.1-11.6,0.1-17,0c-0.8,0-1.4,0.1-1.7,0.4c-0.4,0.4-0.5,1.1-0.5,2.1c0,1.2,0.1,1.8,0.5,2.1
			c0.3,0.3,0.9,0.4,1.7,0.4c0.3,0,0.6-0.1,0.9-0.1c1.1-0.2,2.5-0.4,3.5,0.9l0.3,0.4l-25.2,24.7v-1.2c0-2.1,0-4.1,0-6.1
			c0-4.6,0.1-9-0.1-13.4c-0.1-1.7,0-3.6,1.2-4.7c0.8-0.7,2.1-0.9,4-0.6c0.9,0.2,1.6,0.1,1.9-0.2c0.4-0.4,0.6-1.1,0.6-2.3
			c0-1-0.2-1.6-0.5-2c-0.4-0.4-1-0.5-2.3-0.5c-5,0.1-10.1,0.1-15,0c-1.4,0-2.1,0.1-2.6,0.5c-0.4,0.4-0.6,1.1-0.6,2.2
			c0,1,0.2,1.7,0.6,2c0.4,0.4,1.1,0.4,2.3,0.3c1.7-0.3,2.9-0.1,3.7,0.6c1.1,0.9,1.2,2.7,1.2,4.4c-0.2,13.6-0.2,26,0,38
			c0,2.2-0.3,3.5-1.2,4.2c-0.8,0.7-2,0.9-3.8,0.6c-1-0.2-1.8-0.1-2.2,0.3c-0.4,0.4-0.6,1.1-0.6,2.1c0,1,0.2,1.7,0.6,2.1
			c0.4,0.4,1.1,0.5,2.2,0.5c5-0.1,10.3-0.1,14.5,0l0.4,0c1.1,0,2.1,0,2.6-0.5c0.4-0.4,0.6-1.1,0.6-2.2c0-1-0.2-1.7-0.6-2.1
			c-0.6-0.5-1.6-0.4-2.7-0.2c-1.5,0.2-2.4,0-3.1-0.5c-1-0.8-1.2-2.1-1.4-3.9c-0.9-7.4,1.4-12.9,7.1-17.4
			C1011.2,246.7,1012,246.1,1012.9,246.1z"/>
	</g>
	<g>
		<path class="st0" d="M1002.6,157c8.3-8.2,16-15.8,24.3-23.9c-1.9-0.1-3.5-0.3-5-0.3c-2.5,0-1.8-1.9-1.9-3.2
			c-0.1-1.4-0.1-2.6,2-2.6c6.2,0.1,12.3,0.1,18.5,0c2.4,0,1.9,1.7,2,3.1c0.1,1.7-0.2,3.2-2.4,2.8c-3.9-0.7-6.1,1.7-8.4,4.2
			c-3.9,4.1-7.9,8.2-12,12c-2.1,1.9-2.4,3.3-0.7,5.7c4.8,6.8,9.4,13.7,13.9,20.7c1.7,2.7,3.5,4.7,7.1,4.1c2.3-0.4,3.2,0.7,3.1,3.1
			c0,2.3-1,2.6-3,2.8c-6,0.7-10.2-0.7-13.3-6.6c-3.5-6.7-8.3-12.8-12.4-19.3c-1.6-2.5-2.3-3.1-5-0.8c-5.4,4.4-7.6,9.5-6.8,16.4
			c0.3,2.9,0.5,4.9,4.1,4.3c2.4-0.4,3.6,0.3,3.6,3.2c0,2.8-1.6,2.8-3.5,2.7c-5,0-10-0.1-15,0c-2.2,0-3.4-0.4-3.4-3
			c0-2.6,1.3-3.2,3.4-2.9c3.7,0.6,4.3-1.2,4.3-4.5c-0.2-12.7-0.2-25.3,0-38c0-3.1-0.6-4.7-4.1-4.1c-2.4,0.4-3.6-0.3-3.6-3.2
			c0-2.8,1.5-2.8,3.5-2.8c5,0.1,10,0.1,15,0c2,0,3.5,0,3.4,2.8c-0.1,2.4-0.8,3.5-3.2,3.1c-4.2-0.8-4.5,1.5-4.4,4.8
			C1002.8,143.9,1002.6,150.2,1002.6,157z"/>
		<path class="st0" d="M1037.4,186.1c-5.2,0-8.6-2.2-11.1-7c-2.2-4.2-4.9-8.1-7.5-12c-1.6-2.4-3.3-4.8-4.8-7.3
			c-0.7-1.2-1.3-1.9-1.8-2c-0.5-0.1-1.3,0.3-2.4,1.3c-5.3,4.4-7.4,9.4-6.6,16l0,0.2c0.2,1.6,0.3,2.9,1.1,3.4
			c0.5,0.4,1.3,0.5,2.4,0.3c1.5-0.2,2.5-0.1,3.2,0.5c0.7,0.6,1,1.6,1,3.1c0,1.5-0.4,2.4-1.2,2.8c-0.7,0.4-1.7,0.4-2.6,0.4l-0.1,0
			c-4.5,0-9.8-0.1-15,0c-1.2,0-2.3-0.1-3-0.8c-0.6-0.6-0.8-1.4-0.8-2.7c0-1.4,0.3-2.3,1-2.9c0.7-0.6,1.6-0.7,3-0.5
			c1.4,0.2,2.3,0.1,2.9-0.4c0.6-0.5,0.9-1.6,0.8-3.6c-0.2-12.2-0.2-25,0-38c0-1.8-0.2-2.8-0.8-3.3c-0.5-0.4-1.4-0.5-2.7-0.3
			c-1.4,0.2-2.5,0.1-3.2-0.5c-0.7-0.6-1.1-1.6-1.1-3.1c0-1.2,0.3-2,0.8-2.6c0.8-0.8,2-0.8,3.2-0.7c5.5,0.1,10.4,0.1,15,0
			c1.3,0,2.4,0,3.2,0.7c0.5,0.5,0.8,1.3,0.7,2.6c-0.1,1.6-0.4,2.6-1.1,3.1c-0.6,0.5-1.5,0.6-2.7,0.4c-1.5-0.3-2.4-0.2-3,0.3
			c-0.8,0.7-0.9,2.1-0.8,4c0.2,4.4,0.1,8.8,0.1,13.5c0,1.6,0,3.1,0,4.7l22.6-22.3c-0.2,0-0.4,0-0.7,0c-1.2-0.1-2.2-0.1-3.2-0.2
			c-0.9,0-1.5-0.2-1.9-0.6c-0.6-0.6-0.6-1.5-0.5-2.3c0-0.3,0-0.5,0-0.8c-0.1-0.9-0.1-1.9,0.5-2.5c0.4-0.4,1-0.6,1.9-0.6
			c5.4,0.1,11.1,0.1,18.5,0c0.8,0,1.5,0.2,1.9,0.6c0.6,0.6,0.6,1.5,0.6,2.3c0,0.2,0,0.5,0,0.7c0,0.9,0,2.2-0.8,2.9
			c-0.5,0.4-1.2,0.6-2.2,0.4c-3.5-0.6-5.4,1.4-7.7,3.7l-0.3,0.3c-4,4.1-7.9,8.2-12.1,12c-2,1.9-2.1,2.9-0.6,5.1
			c4.4,6.1,8.8,12.7,13.9,20.8c1.9,2.9,3.5,4.4,6.6,3.8c1.2-0.2,2.1-0.1,2.7,0.5c0.7,0.6,1,1.6,1,3.1c0,2.7-1.4,3.1-3.4,3.3
			C1039.1,186.1,1038.2,186.1,1037.4,186.1z M1011.9,156.8c0.1,0,0.2,0,0.3,0c1,0.2,1.7,1.2,2.5,2.4c1.5,2.5,3.2,4.9,4.8,7.2
			c2.7,3.9,5.4,7.9,7.6,12.1c2.8,5.3,6.5,7.1,12.8,6.3c1.9-0.2,2.5-0.4,2.5-2.3c0-1.2-0.2-2-0.7-2.4c-0.4-0.3-1-0.4-1.9-0.2
			c-4,0.7-6-1.7-7.6-4.3c-5.1-8-9.5-14.6-13.9-20.7c-1.8-2.6-1.6-4.2,0.7-6.4c4.1-3.8,8-7.8,12-12l0.3-0.3c2.2-2.3,4.6-4.8,8.6-4
			c0.6,0.1,1.1,0.1,1.3-0.2c0.4-0.3,0.5-1,0.4-2.1c0-0.2,0-0.5,0-0.8c0-0.7,0-1.3-0.3-1.6c-0.2-0.2-0.6-0.3-1.2-0.3
			c-7.4,0-13.1,0-18.5,0c-0.6,0-1,0.1-1.2,0.3c-0.3,0.3-0.3,1.1-0.2,1.8c0,0.3,0,0.6,0,0.9c0,0.6,0,1.2,0.3,1.5
			c0.2,0.2,0.6,0.3,1.2,0.3c1.1,0,2.1,0.1,3.3,0.2c0.6,0,1.1,0.1,1.8,0.1l1.1,0.1l-25.9,25.5V157c0-2,0-4,0-5.9
			c0-4.6,0.1-9-0.1-13.4c-0.1-2.3,0.1-3.9,1.2-4.8c0.8-0.7,2.1-0.9,3.9-0.6c0.9,0.2,1.5,0.1,1.9-0.2c0.4-0.4,0.7-1.1,0.7-2.4
			c0-0.9-0.1-1.5-0.4-1.8c-0.5-0.5-1.4-0.5-2.5-0.4c-4.6,0.1-9.5,0.1-15,0c-1.2,0-2,0-2.5,0.5c-0.3,0.3-0.5,0.9-0.5,1.8
			c0,1.2,0.2,2,0.7,2.4c0.5,0.4,1.2,0.5,2.4,0.3c1.6-0.3,2.7-0.1,3.5,0.6c1,0.9,1.2,2.5,1.1,4.1c-0.2,13-0.2,25.7,0,38
			c0,1.7-0.1,3.5-1.2,4.4c-0.8,0.7-2,0.9-3.7,0.6c-1-0.2-1.8-0.1-2.2,0.3c-0.4,0.4-0.7,1.1-0.7,2.1c0,1,0.2,1.6,0.5,2
			c0.4,0.4,1.1,0.6,2.3,0.5c5.2-0.1,10.5-0.1,15,0l0.1,0c0.9,0,1.7,0,2.1-0.3c0.3-0.2,0.7-0.6,0.7-2c0-1.2-0.2-2-0.7-2.3
			c-0.4-0.4-1.2-0.5-2.4-0.3c-1.4,0.2-2.5,0.1-3.2-0.5c-1.1-0.8-1.2-2.3-1.4-4.1l0-0.2c-0.8-6.9,1.4-12.3,7-16.9
			C1010.3,157.3,1011.2,156.8,1011.9,156.8z"/>
	</g>
	<g>
		<path class="st0" d="M1071.1,126.9c4.3,0.3,9.5-0.5,14.6,0.8c7.7,2.1,12.4,6.6,13.4,13.1c1.1,7.9-1.7,13.9-9.1,17.7
			c-3,1.5-2.4,2.6-1,4.7c2.5,3.7,4.9,7.5,7.1,11.4c1.7,3,3.4,5.7,7.6,4.9c2.5-0.5,2.4,1.4,2.5,3.1c0,1.8-0.4,2.7-2.4,2.8
			c-5.6,0.3-10.5,0.3-13.2-6.5c-2.1-5.3-5.8-10.1-8.8-15c-1.1-1.7-9.4-3.2-10.9-2c-0.9,0.7-0.6,1.8-0.6,2.8c0,2.7,0.1,5.3,0,8
			c-0.2,3.9-0.7,8,5.5,6.8c2.1-0.4,2.2,1.3,2.2,2.9c0,1.7-0.3,2.9-2.4,2.9c-5.7,0-11.3-0.1-17,0c-2,0-2.6-0.8-2.5-2.7
			c0.1-1.8,0-3.6,2.5-3.2c4.5,0.7,5-1.6,5-5.4c-0.2-12.3-0.1-24.6,0-36.9c0-2.9-0.2-4.9-3.9-4.3c-2.4,0.4-3.5-0.3-3.6-3.1
			c0-3.3,1.9-2.8,3.9-2.8C1063.3,126.9,1066.8,126.9,1071.1,126.9z M1070.1,144.1c0,12.7,1.4,13.9,12.9,11c7-1.8,10.6-6.8,9.4-13
			c-1.3-7.1-7.9-10.6-19.4-9.1c-6.3,0.8-1.3,6.5-2.9,9.6C1069.9,143.1,1070.1,143.6,1070.1,144.1z"/>
		<path class="st0" d="M1100.8,186c-4.2,0-8.5-0.9-10.8-6.9c-1.5-3.7-3.8-7.3-6-10.7c-0.9-1.4-1.9-2.8-2.7-4.3
			c-0.4-0.7-2.8-1.5-5.4-2c-2.5-0.4-4.3-0.3-4.7,0.1c-0.5,0.4-0.5,1-0.5,1.8c0,0.2,0,0.4,0,0.6c0,1,0,2,0,3c0,1.6,0,3.3,0,5l0,0.6
			c-0.1,2.2-0.2,4.2,0.9,5.2c0.8,0.7,2.1,0.8,4,0.4c0.8-0.2,1.5,0,1.9,0.3c0.8,0.7,0.9,2,0.9,3.1c0,1,0,2-0.7,2.7
			c-0.5,0.5-1.2,0.7-2.2,0.7c-6.7-0.1-12-0.1-17,0c-1.1,0-1.9-0.2-2.4-0.7c-0.5-0.5-0.7-1.3-0.7-2.5l0-0.3c0-1.1,0.1-2.3,0.9-3
			c0.5-0.4,1.2-0.5,2.2-0.4c1.6,0.3,2.8,0.1,3.4-0.5c0.9-0.8,1-2.3,1-4.4c-0.2-12.4-0.1-25.1,0-36.9c0-1.7-0.1-2.9-0.8-3.5
			c-0.5-0.4-1.3-0.5-2.6-0.3c-1.4,0.2-2.4,0.1-3.1-0.5c-0.7-0.6-1.1-1.6-1.1-3.1c0-1.2,0.2-2.1,0.8-2.7c0.8-0.7,1.9-0.7,2.9-0.7
			c0.2,0,0.4,0,0.7,0c2.4,0,4.8,0,7.4,0l3.9,0l0,0c1.5,0.1,3,0.1,4.6,0c3.3-0.1,6.7-0.1,10.1,0.8c7.9,2.1,12.8,6.9,13.7,13.5
			c1.2,8.3-2,14.4-9.4,18.2c-1.1,0.6-1.7,1.1-1.9,1.6c-0.1,0.6,0.3,1.3,1,2.4c2.4,3.6,4.8,7.4,7.1,11.5c1.7,2.9,3.1,5.4,7,4.7
			c1-0.2,1.7-0.1,2.2,0.3c0.8,0.7,0.8,1.9,0.9,3l0,0.2c0,1.9-0.4,3.1-2.9,3.3C1102.7,186,1101.7,186,1100.8,186z M1073,161
			c1.1,0,2.2,0.1,2.9,0.3c2.4,0.4,5.4,1.2,6.1,2.4c0.9,1.4,1.8,2.9,2.7,4.2c2.3,3.4,4.6,7,6.1,10.8c2.4,6.2,6.6,6.5,12.7,6.2
			c1.7-0.1,2-0.7,2-2.2l0-0.2c0-0.9,0-1.9-0.5-2.3c-0.3-0.2-0.7-0.3-1.4-0.1c-4.6,0.9-6.5-2.3-8.1-5.1c-2.3-4-4.7-7.8-7.1-11.4
			c-0.9-1.3-1.4-2.2-1.2-3.2c0.2-0.8,0.9-1.5,2.4-2.2c7.1-3.6,10-9.2,8.8-17.1c-0.9-6.2-5.4-10.6-13-12.7c-3.3-0.9-6.6-0.8-9.8-0.8
			c-1.6,0-3.2,0.1-4.7,0l-3.8,0c-2.6,0-5,0-7.4,0c-0.2,0-0.5,0-0.7,0c-0.9,0-1.8-0.1-2.2,0.4c-0.3,0.3-0.5,1-0.5,1.9
			c0,1.2,0.2,2,0.7,2.4c0.4,0.4,1.2,0.5,2.3,0.3c1.6-0.3,2.7-0.1,3.4,0.5c1.1,0.9,1.1,2.5,1.1,4.3c-0.1,11.8-0.2,24.5,0,36.9
			c0,2.5-0.2,4.2-1.3,5.2c-0.9,0.8-2.2,1-4.2,0.7c-0.6-0.1-1.1,0-1.4,0.2c-0.5,0.4-0.5,1.3-0.5,2.2l0,0.3c0,0.9,0.1,1.4,0.4,1.7
			c0.3,0.3,0.8,0.4,1.6,0.4c4.9-0.1,10.3-0.1,17,0c0.7,0,1.2-0.1,1.4-0.4c0.3-0.3,0.4-0.9,0.4-2c0-0.9,0-1.9-0.5-2.3
			c-0.2-0.2-0.6-0.2-1.1-0.1c-2.3,0.4-3.9,0.2-4.9-0.7c-1.5-1.3-1.4-3.7-1.3-6l0-0.6c0.1-1.6,0-3.3,0-4.9c0-1,0-2,0-3.1
			c0-0.2,0-0.4,0-0.5c0-0.8-0.1-1.9,0.8-2.6C1070.9,161.1,1072,161,1073,161z M1075.4,156.9c-1.4,0-2.5-0.3-3.4-1
			c-2.1-1.6-2.4-5.3-2.4-11.9c0-0.1,0-0.3,0-0.4c0-0.4-0.1-0.9,0.1-1.3c0.5-1,0.2-2.4-0.1-3.8c-0.4-1.6-0.7-3.3,0.2-4.6
			c0.6-0.8,1.6-1.3,3.2-1.5c11.5-1.5,18.6,1.9,20,9.5c1.2,6.5-2.5,11.7-9.8,13.5C1079.8,156.4,1077.3,156.9,1075.4,156.9z
			 M1077.9,133.2c-1.5,0-3.1,0.1-4.8,0.3c-1.3,0.2-2.1,0.5-2.5,1.1c-0.6,0.9-0.3,2.3,0,3.8c0.3,1.6,0.7,3.2,0,4.5
			c-0.1,0.1,0,0.4,0,0.7c0,0.2,0,0.4,0,0.5c0,6.1,0.3,9.7,2.1,11.1c1.7,1.3,4.9,0.8,10.2-0.6c6.7-1.7,10.2-6.5,9.1-12.4
			C1090.8,136.3,1085.9,133.2,1077.9,133.2z"/>
	</g>
	<g>
		<path class="st0" d="M1209.7,125.9c16.7,0,29.3,12.8,29.3,29.9c0.1,17.6-12.7,30.7-29.8,30.6c-16.7-0.1-29.2-13.1-29.2-30.2
			C1180.1,138.9,1192.8,125.9,1209.7,125.9z M1232.1,156.4c0.1-14-9.3-24.3-22.2-24.5c-13.1-0.1-22.8,9.8-23,23.6
			c-0.1,14.3,9.2,24.6,22.4,24.7C1222.6,180.4,1232,170.4,1232.1,156.4z"/>
		<path class="st0" d="M1209.5,186.9c-0.1,0-0.2,0-0.2,0c-16.9-0.1-29.7-13.3-29.7-30.7c0-17.5,12.9-30.8,30.1-30.8l0,0
			c0,0,0,0,0.1,0c16.9,0,29.7,13.1,29.8,30.4c0,8.8-3.1,16.9-8.9,22.6C1225.1,183.9,1217.6,186.9,1209.5,186.9z M1209.7,126.4
			C1209.7,126.4,1209.7,126.4,1209.7,126.4c-16.6,0-29.1,12.8-29.1,29.8c0,16.8,12.3,29.6,28.7,29.7c0.1,0,0.2,0,0.2,0
			c7.9,0,15.2-2.9,20.5-8.2c5.6-5.6,8.6-13.3,8.6-21.9C1238.4,139,1226.1,126.4,1209.7,126.4z M1209.6,180.8c-0.1,0-0.1,0-0.2,0
			c-6.3,0-11.8-2.3-16-6.6c-4.5-4.6-7-11.2-6.9-18.6c0.1-6.8,2.5-13,6.8-17.4c4.2-4.4,10.1-6.7,16.5-6.7c0.1,0,0.2,0,0.3,0
			c13.2,0.1,22.7,10.6,22.7,25l0,0c0,7.1-2.5,13.5-7,18C1221.4,178.5,1215.7,180.8,1209.6,180.8z M1209.7,132.5
			c-6.1,0-11.7,2.3-15.7,6.4c-4.1,4.2-6.4,10.2-6.5,16.7c-0.1,7.1,2.3,13.5,6.7,17.9c4,4.1,9.3,6.2,15.3,6.3c6.1,0,11.4-2.1,15.5-6
			c4.3-4.3,6.7-10.4,6.7-17.3c0.1-13.8-9-23.8-21.7-24C1209.9,132.5,1209.8,132.5,1209.7,132.5z"/>
	</g>
	<g>
		<path class="st0" d="M1325.3,216.1c6,0,12,0.1,18-0.1c2.6-0.1,3.6,0.8,3.4,3.4c-0.2,2.5-0.1,5,0,7.5c0.1,2.3-0.3,3.7-3.2,3.7
			c-3.2,0.1-3.8-1.4-3.4-4c0.7-4.1-1.1-5.1-4.9-4.8c-4.5,0.3-9,0.2-13.5,0c-2.5-0.1-3.6,0.5-3.5,3.3c0.2,4.5,0.2,9,0,13.5
			c-0.1,2.7,0.9,3.4,3.5,3.3c3.5-0.2,7-0.2,10.5,0c2,0.1,5.3-1.7,5.2,3c-0.2,4.5-3.4,2.6-5.4,2.7c-3.5,0.3-7,0.2-10.5,0
			c-2.4-0.1-3.3,0.7-3.2,3.1c0.1,5,0.2,10,0,15c-0.1,2.5,0.9,3.1,3.2,3.1c4.8-0.1,9.7-0.2,14.5,0c3.1,0.1,4.6-0.5,4.2-4
			c-0.3-2.4-0.7-5,3.4-4.8c3.9,0.1,3.1,2.6,3.1,4.8c0.1,9.9,0.1,9.9-9.9,9.9c-9.5,0-19,0-28.5,0c-2.1,0-4.3,0.5-4.3-3
			c0-3.2,1.8-3.2,3.8-2.9c3.2,0.4,3.9-1,3.9-4c-0.1-13-0.1-26,0-38.9c0-2.9-0.6-4.4-3.8-4c-2,0.3-3.8,0.4-3.9-2.8
			c0-3.5,2.1-3.1,4.2-3.1C1313.9,216.1,1319.6,216.1,1325.3,216.1z"/>
		<path class="st0" d="M1306.9,275.4c-0.9,0-1.8-0.1-2.5-0.7c-0.6-0.6-0.9-1.5-0.9-2.8c0-1.4,0.3-2.3,1-2.9c0.9-0.8,2.2-0.7,3.4-0.5
			c1.2,0.2,2.1,0,2.6-0.4c0.5-0.5,0.8-1.4,0.7-3.1c-0.1-12.8-0.1-25.9,0-39c0-1.7-0.2-2.6-0.7-3.1c-0.5-0.4-1.3-0.6-2.5-0.4
			c-1.4,0.2-2.6,0.3-3.5-0.5c-0.6-0.6-1-1.5-1-2.8c0-1.3,0.3-2.3,0.9-2.9c0.8-0.8,2-0.8,3.2-0.8c0.2,0,0.4,0,0.6,0
			c4.1,0,8.1,0,12.2,0l4.8,0c1.7,0,3.5,0,5.2,0c4.2,0,8.5,0,12.8-0.1c1.5,0,2.5,0.2,3.2,0.9c0.6,0.6,0.9,1.6,0.8,3.1
			c-0.1,2.1-0.1,4.5,0,7.4c0.1,1.2,0,2.5-0.8,3.3c-0.6,0.6-1.5,0.9-2.9,1c-1.6,0-2.7-0.3-3.3-1.1c-0.6-0.8-0.8-1.9-0.5-3.5
			c0.3-1.7,0.1-2.8-0.4-3.4c-0.6-0.7-1.9-1-3.9-0.8c-4.4,0.3-8.7,0.2-13.5,0c-1.3,0-2.1,0.1-2.5,0.5c-0.4,0.4-0.6,1.1-0.5,2.2
			c0.2,4.5,0.2,9,0,13.5c-0.1,1.2,0.1,1.9,0.5,2.3c0.4,0.4,1.2,0.6,2.4,0.5c3.9-0.2,7.3-0.2,10.5,0c0.4,0,0.9,0,1.4-0.1
			c1.1-0.1,2.4-0.3,3.3,0.5c0.7,0.6,0.9,1.6,0.9,3.1c-0.1,1.4-0.4,2.4-1.1,3c-0.9,0.8-2.2,0.6-3.3,0.4c-0.6-0.1-1.1-0.2-1.5-0.1
			c-3.3,0.3-6.6,0.2-10.5,0c-1.1-0.1-1.8,0.1-2.1,0.5c-0.4,0.4-0.5,1.1-0.5,2.1c0.2,5,0.2,10.1,0,15c0,1,0.1,1.7,0.5,2
			c0.4,0.4,1.1,0.5,2.2,0.5c4.6-0.1,9.6-0.2,14.5,0c1.7,0.1,2.7-0.1,3.2-0.7c0.5-0.5,0.6-1.4,0.4-2.8l0-0.2
			c-0.2-1.5-0.4-3.1,0.6-4.2c0.7-0.7,1.8-1.1,3.4-1c1.4,0,2.3,0.4,2.9,1c0.8,0.9,0.7,2.1,0.7,3.3c0,0.3,0,0.7,0,1
			c0.1,5,0.1,7.6-1.3,9c-1.4,1.4-4,1.4-9.1,1.4h-28.5c-0.3,0-0.5,0-0.7,0C1307.4,275.4,1307.1,275.4,1306.9,275.4z M1306.6,269.3
			c-0.6,0-1,0.1-1.4,0.4c-0.4,0.4-0.6,1.1-0.6,2.1c0,1,0.2,1.7,0.6,2.1c0.5,0.5,1.4,0.5,2.5,0.4c0.2,0,0.5,0,0.8,0c0,0,0,0,0,0h28.5
			c4.9,0,7.3,0,8.4-1.1c1.1-1.1,1-3.6,1-8.3c0-0.4,0-0.7,0-1.1c0.1-1,0.1-2-0.4-2.5c-0.4-0.4-1.1-0.7-2.2-0.7
			c-1.3-0.1-2.2,0.2-2.6,0.7c-0.7,0.7-0.5,2.1-0.3,3.4l0,0.2c0.2,1.7,0,2.8-0.7,3.6c-0.9,1-2.6,1.1-4,1c-4.9-0.2-9.8-0.1-14.4,0
			c-1,0-2.2,0-3-0.8c-0.6-0.6-0.8-1.5-0.8-2.8c0.2-4.9,0.2-9.9,0-14.9c0-1.4,0.2-2.3,0.8-2.9c0.6-0.6,1.5-0.8,2.9-0.8
			c3.9,0.2,7.2,0.2,10.4,0c0.5,0,1.2,0,1.7,0.1c1,0.1,1.9,0.3,2.5-0.2c0.4-0.4,0.7-1.1,0.7-2.2c0-1.2-0.1-2-0.6-2.3
			c-0.5-0.5-1.5-0.4-2.5-0.2c-0.5,0.1-1.1,0.1-1.6,0.1c-3.2-0.2-6.6-0.2-10.4,0c-1.6,0.1-2.5-0.2-3.2-0.8c-0.6-0.6-0.9-1.6-0.8-3
			c0.2-4.5,0.2-9,0-13.4c-0.1-1.4,0.2-2.4,0.8-3c0.8-0.8,2.1-0.9,3.2-0.8c4.8,0.2,9.1,0.3,13.4,0c2.4-0.2,3.9,0.2,4.7,1.1
			c0.8,0.9,1,2.3,0.7,4.2c-0.2,1.3-0.1,2.2,0.3,2.7c0.4,0.5,1.3,0.7,2.5,0.7c1.1,0,1.8-0.2,2.2-0.7c0.4-0.4,0.6-1.2,0.5-2.6
			c-0.1-3-0.1-5.4,0-7.5c0.1-1.1-0.1-1.9-0.5-2.3c-0.4-0.4-1.2-0.6-2.4-0.6c-4.3,0.1-8.6,0.1-12.8,0.1c-1.7,0-3.5,0-5.2,0l-4.8,0
			c-4.1,0-8.1,0-12.2,0c-0.2,0-0.4,0-0.6,0c-1.1,0-2,0-2.5,0.5c-0.4,0.4-0.6,1.1-0.6,2.1c0,1,0.2,1.7,0.6,2.1
			c0.6,0.5,1.5,0.4,2.7,0.3c1.6-0.2,2.6,0,3.3,0.6c1,0.9,1.1,2.4,1.1,3.8c-0.1,13-0.1,26.1,0,38.9c0,1.4-0.1,2.9-1.1,3.8
			c-0.7,0.6-1.8,0.8-3.4,0.6C1307.4,269.4,1307,269.3,1306.6,269.3z"/>
	</g>
	<g>
		<path class="st0" d="M1139.6,185.4c-5.7,0-11.3,0-17,0c-2,0-4,0.5-4-2.8c0-3,1.5-3.4,3.7-3.1c3.3,0.5,3.8-1.1,3.7-4
			c-0.1-12.8-0.1-25.7,0-38.5c0-3.1-0.5-4.8-4-4.2c-2.6,0.4-3.4-0.7-3.5-3.3c0-2.9,1.7-2.7,3.6-2.6c11.8,0,23.7,0.1,35.5,0
			c2.6,0,3.6,0.7,3.3,3.4c-0.2,2.5-0.2,5,0,7.5c0.2,2.5-0.4,3.5-3.2,3.5c-2.9,0-3.4-1.4-3.1-3.7c0.6-4-1.1-5.2-5-4.9
			c-4.5,0.3-9,0.2-13.5,0c-2.5-0.1-3.6,0.5-3.5,3.3c0.2,4.5,0.2,9,0,13.5c-0.1,2.6,0.8,3.5,3.4,3.4c4.2-0.2,8.3,0,12.5-0.1
			c1.8,0,3.2,0,3.2,2.5c0,2.4-0.7,3.3-3.1,3.2c-4.2-0.1-8.3,0.1-12.5-0.1c-2.5-0.1-3.6,0.5-3.5,3.3c0.2,5,0.1,10,0,15
			c0,2.2,0.8,2.9,2.9,2.9c4.8-0.1,9.7-0.2,14.5,0c3.4,0.2,5-0.8,4.5-4.4c-0.3-2.4-0.4-4.5,3.3-4.4c3.7,0.1,2.9,2.2,2.9,4.3
			c0.1,10.2,0.1,10.2-9.9,10.2C1147.3,185.4,1143.4,185.4,1139.6,185.4z"/>
		<path class="st0" d="M1121.3,185.9c-0.9,0-1.7-0.1-2.4-0.7c-0.6-0.5-0.8-1.4-0.8-2.6c0-1.4,0.3-2.4,1-3c0.9-0.8,2.2-0.7,3.3-0.6
			c1.2,0.2,2,0.1,2.4-0.3c0.6-0.6,0.7-1.9,0.7-3.2c-0.1-13.6-0.1-26.2,0-38.5c0-1.9-0.2-2.9-0.8-3.4c-0.5-0.4-1.4-0.5-2.6-0.3
			c-1.3,0.2-2.3,0.1-3-0.5c-0.7-0.6-1.1-1.7-1.1-3.3c0-1.1,0.2-2,0.7-2.5c0.7-0.7,1.8-0.7,2.9-0.7l0.4,0l7.1,0c9.3,0,19,0,28.4-0.1
			c1.6,0,2.6,0.3,3.2,0.9c0.6,0.6,0.8,1.6,0.7,3c-0.2,2.3-0.2,4.7,0,7.4c0.1,1.1,0.1,2.3-0.7,3.1c-0.6,0.6-1.5,0.9-3,0.9
			c-1.5,0-2.5-0.3-3-1c-0.8-0.9-0.7-2.2-0.5-3.2c0.3-1.7,0.1-2.8-0.5-3.5c-0.7-0.7-1.9-1-3.9-0.8c-4.4,0.3-8.7,0.2-13.5,0
			c-1.3,0-2.1,0.1-2.5,0.5c-0.4,0.4-0.5,1.1-0.5,2.2c0.2,4.1,0.2,8.5,0,13.5c0,1.2,0.1,2,0.5,2.4c0.4,0.4,1.2,0.6,2.3,0.5
			c2.7-0.1,5.5-0.1,8.2-0.1c1.4,0,2.9,0,4.3,0c1.2,0,2.3,0,3,0.7c0.5,0.5,0.7,1.2,0.7,2.3c0,1.5-0.3,2.4-0.9,2.9
			c-0.6,0.6-1.5,0.8-2.8,0.8c-2-0.1-4,0-6,0c-2.1,0-4.3,0-6.5,0c-1.3,0-2,0.1-2.5,0.5c-0.4,0.4-0.6,1.1-0.5,2.2
			c0.2,5.2,0.1,10.5,0,15c0,0.9,0.1,1.5,0.5,1.9c0.3,0.3,1,0.5,1.9,0.5l0.6,0c4.6-0.1,9.3-0.2,13.9,0c1.8,0.1,2.9-0.2,3.5-0.8
			c0.5-0.6,0.7-1.6,0.5-3.1c-0.2-1.3-0.4-2.9,0.6-3.9c0.6-0.7,1.7-1,3.3-1c1.3,0,2.3,0.3,2.8,0.9c0.7,0.8,0.7,1.9,0.6,2.9
			c0,0.3,0,0.6,0,0.9c0.1,5.2,0.1,7.9-1.3,9.3c-1.4,1.4-4,1.4-9.1,1.4l-28.5,0c-0.2,0-0.4,0-0.7,0
			C1121.7,185.9,1121.5,185.9,1121.3,185.9z M1121.2,179.9c-0.7,0-1.1,0.1-1.4,0.4c-0.5,0.4-0.7,1.1-0.7,2.3c0,0.9,0.2,1.6,0.5,1.9
			c0.5,0.5,1.4,0.4,2.3,0.4c0.2,0,0.4,0,0.7,0l28.5,0c4.9,0,7.3,0,8.4-1.1c1.1-1.1,1.1-3.6,1-8.6c0-0.3,0-0.6,0-1
			c0-0.9,0.1-1.7-0.4-2.2c-0.4-0.4-1.1-0.6-2.1-0.6c-1.2,0-2.1,0.2-2.5,0.7c-0.6,0.6-0.5,1.8-0.3,3.1c0.2,1.8,0,3.1-0.8,3.9
			c-0.8,0.9-2.1,1.2-4.3,1.1c-4.6-0.2-9.3-0.1-13.8,0l-0.6,0c-1.3,0-2.1-0.2-2.7-0.8c-0.6-0.6-0.8-1.4-0.8-2.6c0.1-4.5,0.2-9.8,0-15
			c-0.1-1.4,0.2-2.4,0.8-3c0.6-0.6,1.6-0.9,3.2-0.8c2.1,0.1,4.3,0.1,6.4,0c2,0,4,0,6,0c1,0,1.7-0.1,2-0.5c0.4-0.4,0.6-1.1,0.6-2.2
			c0-0.8-0.1-1.3-0.4-1.6c-0.4-0.4-1.3-0.4-2.2-0.4c-1.5,0-2.9,0-4.4,0c-2.7,0-5.4-0.1-8.1,0.1c-1.5,0.1-2.5-0.2-3.1-0.8
			c-0.6-0.6-0.9-1.6-0.8-3.1c0.2-5,0.2-9.4,0-13.4c-0.1-1.4,0.2-2.3,0.8-3c0.8-0.8,2.1-0.9,3.2-0.8c4.8,0.2,9.1,0.3,13.4,0
			c2.4-0.2,3.9,0.2,4.7,1.2c0.8,0.9,1.1,2.3,0.7,4.3c-0.2,1.2-0.1,2,0.3,2.4c0.4,0.5,1.1,0.7,2.3,0.7c1.2,0,1.9-0.2,2.3-0.6
			c0.4-0.4,0.5-1.1,0.4-2.4c-0.2-2.8-0.2-5.2,0-7.6c0.1-1.1,0-1.8-0.4-2.2c-0.4-0.4-1.1-0.6-2.4-0.6c-9.5,0.1-19.1,0.1-28.4,0.1
			l-7.5,0c-0.9,0-1.7,0-2.2,0.4c-0.3,0.3-0.5,0.9-0.5,1.7c0,1.3,0.2,2.1,0.7,2.6c0.4,0.4,1.1,0.4,2.1,0.3c1.6-0.3,2.7-0.1,3.5,0.5
			c1,0.9,1.2,2.5,1.1,4.1c-0.1,12.3-0.1,24.9,0,38.5c0,1.8-0.2,3.1-1.1,3.9c-0.7,0.6-1.7,0.8-3.2,0.6
			C1121.9,179.9,1121.5,179.9,1121.2,179.9z"/>
	</g>
	<g>
		<path class="st0" d="M1334.5,126.9c6,0,12,0.1,18,0c2.3,0,3.4,0.6,3.2,3.1c-0.2,2.5-0.1,5,0,7.5c0.1,2.2,0,3.8-3,3.8
			c-3,0-3.9-1.2-3.4-3.8c0.8-4.3-1.4-4.9-5-4.7c-4.7,0.3-9.3,0.1-14,0c-2.1,0-3,0.7-2.9,2.9c0.1,4.7,0.2,9.3,0,14
			c-0.1,2.8,1.2,3.3,3.6,3.2c4.2-0.1,8.3,0,12.5-0.1c2.1-0.1,3,0.5,3,2.8c0,2.1-0.6,3-2.9,3c-4.3-0.1-8.7,0.1-13-0.1
			c-2.3-0.1-3.3,0.8-3.2,3.2c0.1,4.8,0.1,9.7,0,14.5c-0.1,2.6,0.7,3.6,3.4,3.5c4.8-0.2,9.7-0.3,14.5,0c3.5,0.2,4.4-1.2,4.1-4.3
			c-0.2-2.3-0.6-4.5,3.3-4.5c3.8,0,3.3,2.1,3.3,4.5c0.1,10,0.1,10-9.8,10c-9.7,0-19.3,0-29,0c-2,0-3.9,0.3-3.9-2.9
			c0-3.1,1.7-3.3,3.8-3c3.8,0.5,3.9-1.6,3.9-4.5c-0.1-12.7-0.1-25.3,0-38c0-3.1-0.6-4.8-4.1-4.2c-2.3,0.4-3.7-0.2-3.7-3.1
			c0-3.3,1.9-2.9,3.9-2.9C1322.8,126.9,1328.6,126.9,1334.5,126.9z"/>
		<path class="st0" d="M1316,185.9c-1,0-1.9-0.1-2.6-0.7c-0.6-0.6-0.8-1.4-0.8-2.7c0-1.4,0.3-2.3,1-2.9c0.9-0.8,2.2-0.7,3.4-0.5
			c1.2,0.2,2.1,0.1,2.6-0.4c0.7-0.6,0.8-2,0.8-3.6c-0.1-11.2-0.1-24.4,0-38c0-1.8-0.2-2.8-0.8-3.4c-0.5-0.4-1.4-0.6-2.7-0.4
			c-1.5,0.2-2.5,0.1-3.2-0.5c-0.7-0.6-1-1.6-1.1-3.1c0-1.2,0.3-2.1,0.8-2.7c0.8-0.8,1.9-0.7,3-0.7c0.2,0,0.4,0,0.6,0
			c4.1,0,8.2,0,12.3,0l5.2,0c1.7,0,3.4,0,5.1,0c4.2,0,8.6,0,12.9-0.1c1,0,2.3,0.1,3,0.9c0.6,0.6,0.8,1.5,0.7,2.7
			c-0.2,2.5-0.1,5,0,7.4c0,1.2,0.1,2.6-0.7,3.4c-0.6,0.6-1.5,0.9-2.8,0.9c-1.7,0-2.8-0.3-3.4-1.1c-0.6-0.7-0.8-1.8-0.5-3.3
			c0.3-1.6,0.2-2.7-0.4-3.3c-0.6-0.7-1.8-1-4.1-0.8c-4.3,0.2-8.7,0.1-12.9,0.1l-1.1,0c-1,0-1.6,0.1-1.9,0.5c-0.3,0.3-0.5,1-0.5,1.9
			c0.1,4.2,0.2,9.1,0,14c0,1.1,0.1,1.8,0.5,2.2c0.4,0.4,1.2,0.6,2.6,0.6c2.2-0.1,4.4-0.1,6.5,0c2,0,4,0,6,0c1,0,2,0,2.7,0.7
			c0.5,0.5,0.8,1.3,0.7,2.5c0,1.4-0.3,2.2-0.9,2.8c-0.5,0.5-1.3,0.8-2.5,0.7c-2.1-0.1-4.3,0-6.5,0c-2.1,0-4.4,0-6.5,0
			c-1.1,0-1.8,0.1-2.2,0.5c-0.4,0.4-0.6,1.1-0.5,2.1c0.1,5.3,0.1,10,0,14.5c0,1.2,0.1,2,0.6,2.4c0.4,0.4,1.2,0.6,2.3,0.6
			c4.7-0.2,9.6-0.3,14.5,0c1.5,0.1,2.5-0.1,3-0.7c0.5-0.5,0.7-1.5,0.5-3.1l0-0.3c-0.1-1.4-0.3-2.8,0.6-3.7c0.6-0.7,1.7-1,3.2-1
			c1.5,0,2.4,0.3,3,0.9c0.8,0.8,0.8,2.1,0.8,3.3c0,0.2,0,0.5,0,0.7c0,5.2,0.1,7.7-1.3,9.1c-1.4,1.4-3.9,1.4-9,1.4l-6.6,0
			c-7.5,0-14.9,0-22.4,0l-0.5,0C1316.3,185.9,1316.2,185.9,1316,185.9z M1315.7,179.9c-0.6,0-1.1,0.1-1.4,0.4
			c-0.4,0.4-0.7,1.1-0.7,2.2c0,1,0.2,1.6,0.5,1.9c0.5,0.5,1.4,0.5,2.4,0.5l0.5,0c7.5,0,14.9,0,22.4,0l6.6,0c4.8,0,7.2,0,8.3-1.1
			c1.1-1.1,1.1-3.5,1-8.3c0-0.3,0-0.6,0-0.8c0-1.1,0-2.1-0.5-2.6c-0.4-0.4-1.2-0.6-2.3-0.6c-1.2,0-2,0.2-2.4,0.7
			c-0.6,0.6-0.5,1.8-0.3,3l0,0.3c0.2,1.9-0.1,3.1-0.8,3.9c-0.7,0.8-1.9,1.1-3.8,1c-4.9-0.3-9.8-0.2-14.4,0c-1.5,0.1-2.4-0.2-3.1-0.9
			c-0.6-0.6-0.9-1.6-0.9-3.2c0.1-4.5,0.1-9.2,0-14.5c0-1.3,0.2-2.2,0.8-2.8c0.6-0.6,1.5-0.9,2.9-0.8c2.2,0.1,4.4,0,6.5,0
			c2.1,0,4.3,0,6.5,0c0.9,0,1.4-0.1,1.8-0.4c0.4-0.3,0.5-1,0.6-2.1c0-0.9-0.1-1.5-0.4-1.8c-0.3-0.3-0.9-0.5-2-0.4
			c-2,0.1-4.1,0-6.1,0c-2.1,0-4.3,0-6.4,0c-1.3,0-2.5,0-3.3-0.9c-0.6-0.6-0.9-1.5-0.8-2.9c0.2-4.9,0.1-9.8,0-14
			c0-1.2,0.2-2.1,0.8-2.6c0.6-0.6,1.4-0.8,2.7-0.8l1.1,0c4.2,0.1,8.6,0.2,12.8-0.1c1.8-0.1,3.8,0,4.9,1.2c0.8,0.9,1,2.2,0.6,4.1
			c-0.2,1.2-0.1,2,0.3,2.5c0.4,0.5,1.3,0.8,2.7,0.7c1,0,1.7-0.2,2.1-0.6c0.5-0.5,0.5-1.5,0.5-2.7c-0.1-2.3-0.2-5,0-7.5
			c0.1-1-0.1-1.6-0.4-2c-0.4-0.4-1.1-0.6-2.3-0.5c-4.3,0.1-8.7,0.1-12.9,0.1c-1.7,0-3.4,0-5.1,0l-5.2,0c-4.1,0-8.2,0-12.3,0
			c-0.2,0-0.4,0-0.6,0c-1,0-1.8,0-2.3,0.4c-0.3,0.3-0.5,1-0.5,1.9c0,1.2,0.2,1.9,0.7,2.3c0.5,0.4,1.2,0.5,2.4,0.3
			c1.6-0.3,2.8-0.1,3.5,0.6c1,0.9,1.2,2.5,1.1,4.1c-0.2,13.5-0.1,26.8,0,38c0,1.8-0.1,3.4-1.1,4.3c-0.7,0.6-1.8,0.8-3.4,0.6
			C1316.4,180,1316,179.9,1315.7,179.9z"/>
	</g>
	<g>
		<path class="st0" d="M1158.5,246.3c0.6-22.6,20.8-36.8,40-29.2c4.6,1.8,8.6,4.4,10.6,9.3c1.2,2.9,1.1,5.6-1.3,7.8
			c-1.7,1.5-3.8,1.6-5.6,0.5c-2.7-1.7-2.9-4.1-1.3-6.9c1.3-2.2-1.1-2.9-2.3-3.7c-7.1-4.6-17.8-3.6-24.7,2.3
			c-9.9,8.4-11.5,24-3.6,34.3c7.9,10.3,21.7,12,32.9,3.9c2.1-1.5,3.4-2.5,5.5,0.2c2.4,3.1-0.3,3.8-1.8,4.9
			c-10.3,7.1-21.3,8.4-32.6,2.8C1163.3,266.9,1158.7,257.2,1158.5,246.3z"/>
		<path class="st0" d="M1188.4,276.5c-4.7,0-9.5-1.2-14.3-3.6c-10.3-5.2-15.9-14.4-16.2-26.6v0c0.3-11.4,5.5-21.3,14.2-27
			c7.9-5.2,17.5-6.2,26.4-2.7c5.6,2.2,9.1,5.2,10.9,9.5c1.4,3.3,0.9,6.1-1.4,8.3c-1.8,1.6-4.1,1.9-6.2,0.6c-2-1.2-3.8-3.5-1.5-7.5
			c0.3-0.5,0.4-0.8,0.3-1.2c-0.2-0.6-0.9-1-1.6-1.4c-0.3-0.1-0.5-0.3-0.8-0.4c-6.8-4.5-17.4-3.5-24.1,2.3
			c-9.6,8.2-11.2,23.6-3.5,33.6c7.7,10.1,21.3,11.6,32.2,3.8l0.2-0.1c2-1.5,3.7-2.6,6,0.4c0.8,1.1,1.2,2,1,2.9
			c-0.2,1.1-1.3,1.7-2.2,2.3c-0.3,0.2-0.5,0.3-0.7,0.5C1201.1,274.4,1194.8,276.5,1188.4,276.5z M1159,246.3
			c0.2,8.2,3,19.4,15.6,25.7c10.8,5.4,21.6,4.5,32-2.7c0.2-0.2,0.5-0.3,0.8-0.5c0.8-0.5,1.6-0.9,1.7-1.6c0.1-0.5-0.2-1.2-0.8-2.1
			c-1.8-2.3-2.6-1.7-4.6-0.2l-0.2,0.1c-11.4,8.2-25.6,6.5-33.6-4c-8.2-10.6-6.5-26.3,3.7-35c7-6,18.1-7,25.3-2.3
			c0.2,0.1,0.4,0.3,0.7,0.4c0.9,0.5,1.8,1,2.1,2c0.2,0.6,0,1.2-0.4,1.9c-1.6,2.8-1.2,4.7,1.1,6.2c1.7,1,3.6,0.8,5-0.5
			c2.1-1.9,2.4-4.3,1.2-7.2c-1.7-4-5-6.9-10.3-9c-8.6-3.4-17.9-2.4-25.5,2.6C1164.3,225.7,1159.3,235.3,1159,246.3z"/>
	</g>
	<g>
		<path class="st0" d="M1119.5,216.1c6.7,0,13.3,0.1,20-0.1c3.1-0.1,4.7,0.5,4.3,4c-0.3,2.5-0.1,5,0,7.5c0.1,2.3-0.2,3.7-3.1,3.7
			c-3.1,0.1-3.8-1.4-3.4-3.9c0.9-4.8-1.4-5.7-5.7-5.6c-8.7,0.3-8.7,0.1-8.7,9c0,11.2,0.1,22.3-0.1,33.5c0,3.1,0.3,5.2,4.2,4.6
			c2-0.3,3.9-0.4,3.9,2.8c0,3-1.5,3.1-3.8,3.1c-5.3-0.1-10.7-0.1-16,0c-2.6,0.1-3-1.1-3-3.3c-0.1-2.4,1.1-3,3-2.6
			c4.5,0.8,5.1-1.4,5-5.3c-0.2-12.5-0.2-25,0-37.5c0.1-3.6-1.1-4.8-4.5-4.3c-1.1,0.2-2.4,0.2-3.5,0c-4.9-0.8-7.5,0.7-6.5,6.2
			c0.5,2.9-1.3,3.1-3.6,3.2c-2.6,0.1-2.9-1.1-3-3.3c-0.5-11.9-0.6-11.9,11.4-11.9C1110.9,216.1,1115.2,216.1,1119.5,216.1z"/>
		<path class="st0" d="M1110.9,275.4c-1.1,0-1.9-0.2-2.4-0.7c-0.7-0.7-0.9-1.7-0.9-3.1c0-1.3,0.3-2.1,0.9-2.7
			c0.6-0.5,1.5-0.7,2.7-0.5c1.7,0.3,2.8,0.2,3.4-0.4c0.9-0.8,1-2.6,1-4.4c-0.2-12.4-0.2-25,0-37.5c0-1.8-0.2-2.8-0.8-3.4
			c-0.6-0.5-1.5-0.6-3.1-0.4c-1.2,0.2-2.5,0.2-3.6,0c-2.6-0.4-4.3-0.2-5.3,0.8c-0.9,0.9-1.1,2.5-0.7,4.8c0.2,1.2,0.1,2.1-0.4,2.7
			c-0.8,0.9-2.2,1-3.6,1.1c-3.1,0.1-3.4-1.7-3.5-3.8l0-0.2c-0.3-6-0.4-9,1.2-10.6c1.6-1.6,4.6-1.6,10.8-1.6h13c1.9,0,3.9,0,5.8,0
			c4.6,0,9.5,0.1,14.2-0.1c1.6,0,3.2,0,4.1,1.1c0.7,0.7,0.9,1.9,0.7,3.5c-0.3,2.4-0.1,4.9,0,7.3c0.1,1.6,0,2.7-0.7,3.4
			c-0.6,0.6-1.5,0.9-2.9,0.9c-1.6,0-2.7-0.3-3.4-1.1c-0.6-0.8-0.8-1.8-0.5-3.4c0.3-1.9,0.2-3.2-0.5-3.9c-0.7-0.8-2.2-1.2-4.7-1.1
			l-0.6,0c-3.9,0.1-5.8,0.2-6.7,1.2c-0.9,1-0.9,3.2-0.9,7.3c0,3.1,0,6.1,0,9.2c0,8,0,16.2-0.1,24.3c0,1.8,0.1,3.1,0.8,3.7
			c0.5,0.5,1.4,0.6,2.8,0.4c1.3-0.2,2.6-0.3,3.5,0.5c0.7,0.6,1,1.5,1,2.9c0,1.3-0.3,2.2-0.9,2.8c-0.8,0.8-2,0.8-3.4,0.8
			c-5.1-0.1-10.5-0.1-16,0C1111,275.4,1111,275.4,1110.9,275.4z M1110.2,269.3c-0.5,0-0.9,0.1-1.1,0.3c-0.4,0.3-0.6,1-0.5,1.9
			c0,1.1,0.1,1.9,0.6,2.4c0.4,0.3,1,0.5,1.9,0.5c5.5-0.2,10.9-0.1,16,0c1.2,0,2.2,0,2.7-0.5c0.4-0.4,0.6-1.1,0.6-2.1
			c0-1-0.2-1.7-0.6-2.1c-0.6-0.5-1.7-0.4-2.7-0.2c-1.7,0.2-2.8,0-3.6-0.6c-1.1-1-1.2-2.7-1.1-4.5c0.1-8.1,0.1-16.3,0.1-24.3
			c0-3.1,0-6.1,0-9.2c0-8.9,0.2-9.2,8.6-9.5l0.6,0c2.1-0.1,4.3,0,5.5,1.4c0.9,1,1.1,2.5,0.7,4.7c-0.2,1.3-0.1,2.1,0.3,2.6
			c0.4,0.5,1.3,0.8,2.6,0.7c1.1,0,1.8-0.2,2.2-0.6c0.5-0.5,0.5-1.4,0.5-2.6c-0.1-2.6-0.2-5.1,0-7.6c0.1-1.3,0-2.2-0.5-2.8
			c-0.5-0.6-1.5-0.8-3.3-0.7c-4.7,0.1-9.6,0.1-14.2,0.1c-1.9,0-3.9,0-5.8,0h-13c-5.8,0-8.8,0-10,1.3c-1.3,1.3-1.1,4.2-0.9,9.8l0,0.2
			c0.1,2.1,0.3,2.9,2.5,2.8c1.2,0,2.4-0.1,2.9-0.7c0.3-0.4,0.4-1,0.2-1.9c-0.5-2.7-0.2-4.5,0.9-5.7c1.2-1.2,3.2-1.6,6.1-1.1
			c1.1,0.2,2.2,0.2,3.3,0c1.8-0.3,3.1-0.1,3.9,0.6c0.9,0.7,1.2,2,1.2,4.1c-0.2,12.5-0.2,25.1,0,37.5c0,2.4-0.2,4.2-1.3,5.2
			c-0.9,0.8-2.3,1-4.3,0.6C1110.8,269.4,1110.5,269.3,1110.2,269.3z"/>
	</g>
	<g>
		<path class="st0" d="M1275,185.4c-5.7,0-11.3,0-17,0c-1.9,0-3.2-0.1-3.1-2.6c0.1-2.1,0.2-3.8,2.9-3.3c4,0.7,4.6-1.2,4.6-4.8
			c-0.2-12.6-0.2-25.3,0-37.9c0-2.9-0.6-4.4-3.8-3.9c-2.2,0.3-3.7,0-3.7-3c0-3.1,1.6-3,3.8-2.9c5,0.1,10,0,15,0
			c1.8,0,3.6-0.4,3.6,2.6c-0.1,2.5-0.7,3.8-3.3,3.4c-4-0.7-4.9,1-4.9,4.8c0.3,12.5,0.2,25,0,37.4c0,3.3,0.6,4.8,4.3,4.5
			c3.8-0.3,7.7-0.3,11.5,0c3.5,0.3,4.8-0.9,4.4-4.4c-0.2-2.1-0.9-4.7,3.1-4.7c3.8,0,3.3,2.3,3.3,4.6c0.1,10.2,0.1,10.2-10.1,10.2
			C1282,185.4,1278.5,185.4,1275,185.4z"/>
		<path class="st0" d="M1257.8,185.9c-1.1,0-2-0.1-2.7-0.7c-0.5-0.5-0.7-1.3-0.7-2.4c0-1.4,0.1-2.7,1-3.4c0.6-0.5,1.4-0.6,2.5-0.4
			c1.5,0.3,2.5,0.1,3.1-0.4c0.7-0.6,0.9-1.7,0.9-3.9c-0.2-11.4-0.2-23.5,0-38c0-1.7-0.2-2.6-0.7-3.1c-0.5-0.4-1.3-0.5-2.5-0.3
			c-1,0.2-2.4,0.3-3.2-0.5c-0.7-0.6-1-1.6-1-3c0-1.3,0.2-2.2,0.8-2.7c0.8-0.8,1.9-0.8,3.2-0.7l0.3,0c3.8,0,7.6,0,11.4,0l3.6,0
			c0.2,0,0.4,0,0.6,0c1,0,2.1-0.1,2.8,0.7c0.5,0.5,0.7,1.3,0.7,2.5c0,1.3-0.2,2.7-1.1,3.4c-0.6,0.5-1.6,0.7-2.8,0.4
			c-1.6-0.3-2.7-0.2-3.3,0.4c-0.7,0.6-1,1.8-1,3.9c0.2,11.1,0.2,23,0,37.5c0,1.9,0.2,2.9,0.8,3.5c0.5,0.5,1.5,0.7,3,0.6
			c3.7-0.3,7.6-0.3,11.6,0c1.7,0.1,2.7-0.1,3.3-0.7c0.6-0.6,0.7-1.6,0.6-3.2c0-0.2,0-0.4-0.1-0.6c-0.2-1.2-0.3-2.7,0.5-3.6
			c0.6-0.7,1.6-1,3.1-1c0,0,0,0,0,0c1.4,0,2.4,0.3,3,0.9c0.8,0.8,0.8,2.1,0.8,3.3c0,0.3,0,0.5,0,0.8c0.1,5.3,0.1,7.9-1.3,9.3
			c-1.4,1.4-4,1.4-9.2,1.4l-15.2,0c-4,0-8.2,0-12.3,0C1257.9,185.9,1257.9,185.9,1257.8,185.9z M1257,179.9c-0.4,0-0.7,0.1-1,0.3
			c-0.5,0.4-0.6,1.4-0.6,2.6c0,0.8,0.1,1.3,0.4,1.6c0.4,0.4,1.1,0.5,2.2,0.4c4.1,0,8.3,0,12.3,0l15.2,0c4.9,0,7.4,0,8.5-1.1
			c1.1-1.1,1.1-3.6,1-8.6c0-0.3,0-0.6,0-0.9c0-1.1,0-2.1-0.5-2.6c-0.4-0.4-1.2-0.6-2.3-0.6c-1.2,0-2,0.2-2.4,0.7
			c-0.6,0.6-0.4,1.8-0.3,2.8c0,0.2,0,0.4,0.1,0.6c0.2,1.9-0.1,3.2-0.9,4c-0.8,0.8-2.1,1.1-4.1,1c-3.9-0.3-7.8-0.3-11.4,0
			c-1.8,0.2-3-0.1-3.7-0.8c-1-0.9-1.1-2.6-1.1-4.2c0.2-14.4,0.2-26.3,0-37.4c0-2.5,0.3-3.9,1.3-4.7c0.9-0.8,2.2-1,4.1-0.6
			c1,0.2,1.6,0.1,2-0.2c0.5-0.4,0.7-1.2,0.7-2.6c0-0.8-0.1-1.4-0.4-1.7c-0.4-0.4-1.2-0.4-2-0.4c-0.2,0-0.4,0-0.6,0l-3.6,0
			c-3.7,0-7.6,0-11.4,0l-0.3,0c-1.1,0-2,0-2.5,0.4c-0.4,0.4-0.5,1-0.5,2c0,1.1,0.2,1.9,0.7,2.3c0.4,0.4,1.2,0.5,2.4,0.3
			c1.5-0.2,2.6-0.1,3.3,0.6c1,0.8,1.1,2.4,1.1,3.9c-0.2,14.5-0.2,26.5,0,37.9c0,1.8-0.1,3.7-1.3,4.7c-0.8,0.7-2.1,0.9-3.9,0.6
			C1257.5,179.9,1257.2,179.9,1257,179.9z"/>
	</g>
	<g>
		<path class="st0" d="M1067.8,274.8c-2.5,0-5-0.1-7.5,0c-2.1,0.1-3.3-0.2-3.4-2.9c-0.1-2.9,1.3-3.5,3.6-3.1c4,0.7,4.6-1.2,4.5-4.7
			c-0.2-12.7-0.2-25.3,0-38c0-3.2-0.8-4.6-4.1-4.1c-2.3,0.3-4.1,0.2-4-3.2c0.1-3.3,2.1-2.7,4-2.8c5.2,0,10.3,0.1,15.5,0
			c2.6-0.1,3,1.2,3,3.3c0.1,2.3-1,3-3,2.7c-4-0.7-5,1.1-4.9,4.9c0.2,12.7,0.2,25.3,0,38c0,3,0.7,4.3,3.9,4c1.9-0.2,4-0.7,4,2.7
			c0,3.3-1.8,3.3-4.1,3.3C1072.9,274.8,1070.3,274.8,1067.8,274.8z"/>
		<path class="st0" d="M1076.3,275.4c-0.3,0-0.6,0-1,0c-1.7-0.1-3.5,0-5.2,0c-0.8,0-1.5,0-2.3,0c-0.8,0-1.5,0-2.3,0
			c-1.7,0-3.5,0-5.2,0c-1.3,0.1-2.3,0-3-0.7c-0.6-0.5-0.9-1.4-0.9-2.7c0-1.5,0.3-2.5,1-3.1c0.7-0.6,1.7-0.8,3.2-0.5
			c1.5,0.3,2.5,0.1,3.1-0.3c0.8-0.7,0.9-2.3,0.9-3.9c-0.2-12.2-0.2-24.6,0-38c0-1.7-0.2-2.7-0.8-3.2c-0.5-0.5-1.4-0.6-2.8-0.4
			c-1.3,0.2-2.7,0.3-3.6-0.5c-0.7-0.6-1-1.6-1-3.2c0-1.2,0.3-2.1,0.9-2.6c0.8-0.7,1.8-0.7,2.9-0.6c0.2,0,0.5,0,0.7,0
			c1.7,0,3.3,0,5,0c3.4,0,7,0,10.5-0.1c1.2,0,2,0.2,2.6,0.7c0.7,0.7,0.9,1.7,0.9,3.1c0,1.3-0.2,2.2-0.9,2.7
			c-0.6,0.5-1.5,0.7-2.7,0.5c-1.6-0.3-2.7-0.1-3.3,0.4c-0.7,0.6-1,1.9-1,4c0.3,13.8,0.1,27.6,0,38c0,1.6,0.2,2.5,0.7,3
			c0.5,0.4,1.3,0.6,2.6,0.4l0.3,0c1.1-0.1,2.4-0.3,3.3,0.5c0.6,0.5,0.9,1.4,0.9,2.7c0,1.4-0.3,2.4-0.9,3
			C1078.4,275.3,1077.3,275.4,1076.3,275.4z M1072.4,274.3c1,0,2,0,3,0c1.4,0.1,2.4,0,3-0.5c0.4-0.4,0.6-1.1,0.6-2.2
			c0-1-0.2-1.6-0.6-2c-0.5-0.5-1.5-0.4-2.5-0.2l-0.4,0c-1.6,0.2-2.7,0-3.4-0.7c-0.8-0.7-1.1-1.8-1.1-3.8c0.1-10.4,0.2-24.2,0-38
			c0-2.5,0.3-4,1.3-4.8c0.9-0.8,2.2-1,4.2-0.6c0.9,0.2,1.5,0.1,1.9-0.2c0.4-0.3,0.6-1,0.5-1.9c0-1.1-0.1-1.9-0.6-2.4
			c-0.4-0.3-1-0.5-1.9-0.5c-3.5,0.1-7.1,0.1-10.5,0.1c-1.7,0-3.3,0-5,0c-0.2,0-0.5,0-0.8,0c-0.9,0-1.7-0.1-2.2,0.4
			c-0.4,0.3-0.5,1-0.6,1.9c0,1.2,0.2,2,0.6,2.4c0.6,0.5,1.7,0.4,2.8,0.3c1.7-0.2,2.8,0,3.6,0.6c0.8,0.7,1.2,1.9,1.1,4
			c-0.2,13.4-0.2,25.8,0,38c0,2.1-0.2,3.8-1.2,4.7c-0.8,0.7-2.1,0.9-3.9,0.6c-1.2-0.2-1.9-0.1-2.4,0.3c-0.4,0.4-0.7,1.2-0.6,2.3
			c0,1,0.2,1.6,0.6,2c0.5,0.4,1.3,0.5,2.3,0.4c1.8-0.1,3.5-0.1,5.3,0c0.8,0,1.5,0,2.3,0l0,0c0.8,0,1.5,0,2.3,0
			C1070.9,274.3,1071.6,274.3,1072.4,274.3z"/>
	</g>
	<g>
		<path class="st0" d="M1465.5,267.1c-0.5,1.9-1.1,3.8-1.6,5.7c-0.4,1.8-1.5,2.4-3.2,2.3c-1.6-0.1-2.3-0.8-2.7-2.3
			c-0.6-2.4-1.4-4.7-2.5-8.1c-0.5,3.4-1,5.6-1.1,7.8c-0.1,2.2-1.2,2.7-3.2,2.7c-2.3,0-2.3-1.4-2.1-2.9c0.5-5.1,1.1-10.2,1.6-15.3
			c0.2-1.6,0.3-2.9,2.5-2.8c2,0.1,4-0.2,4.6,2.5c0.7,3,1.7,6,2.8,9.5c2.3-2.8,2.6-6,3.4-8.9c0.7-2.9,2.4-3,4.7-3
			c3-0.1,2.4,2.1,2.6,3.8c0.6,4.6,1.1,9.2,1.6,13.8c0.1,1.5,1,3.4-1.9,3.5c-2.3,0.1-3.3-0.7-3.5-3c-0.1-1.7-0.5-3.4-0.7-5.1
			C1466.2,267,1465.9,267,1465.5,267.1z"/>
		<path class="st0" d="M1470.5,275.6c-2.3,0-3.4-1.1-3.7-3.4c-0.1-1.2-0.3-2.4-0.5-3.5c-0.1-0.4-0.1-0.7-0.2-1.1l-0.3,0
			c-0.1,0.5-0.3,0.9-0.4,1.4c-0.4,1.3-0.8,2.6-1.1,3.9c-0.5,1.9-1.6,2.8-3.7,2.7c-1.8-0.1-2.7-0.9-3.2-2.7c-0.4-1.6-0.9-3.1-1.5-5.1
			c-0.1-0.3-0.2-0.6-0.3-1c-0.1,0.3-0.1,0.6-0.2,0.9c-0.3,1.8-0.5,3.3-0.6,4.7c-0.1,2.6-1.6,3.1-3.7,3.1c-1,0-1.7-0.2-2.2-0.7
			c-0.7-0.7-0.5-1.9-0.5-2.8c0.2-2.4,0.5-4.7,0.8-7.1c0.3-2.7,0.6-5.5,0.9-8.2c0.2-1.5,0.4-3.4,3-3.3c0.2,0,0.5,0,0.7,0
			c1.7,0,3.7,0.1,4.4,2.8c0.5,2.1,1.1,4.2,1.8,6.3c0.2,0.7,0.4,1.4,0.7,2.2c1.4-2,1.8-4.1,2.3-6.3c0.1-0.6,0.3-1.2,0.4-1.7
			c0.8-3.3,3.1-3.4,5.2-3.4c3-0.1,3,1.9,3.1,3.3c0,0.3,0,0.6,0.1,0.9c0.5,3.8,1.1,8.8,1.6,13.9c0,0.2,0.1,0.4,0.1,0.7
			c0.1,0.9,0.3,1.8-0.3,2.6c-0.4,0.5-1.1,0.8-2.2,0.8C1470.8,275.6,1470.6,275.6,1470.5,275.6z M1467,266.5l0.1,0.5
			c0.1,0.5,0.2,1,0.2,1.5c0.2,1.2,0.4,2.4,0.5,3.6c0.2,2,1,2.6,3,2.5c0.7,0,1.2-0.2,1.5-0.5c0.3-0.4,0.2-1.1,0.1-1.8
			c0-0.2-0.1-0.5-0.1-0.7c-0.5-5.1-1.1-10.1-1.6-13.8c0-0.3-0.1-0.7-0.1-1c0-1.4-0.1-2.4-2-2.3c-2.4,0-3.6,0.2-4.3,2.7
			c-0.1,0.6-0.3,1.1-0.4,1.7c-0.5,2.5-1.1,5.1-3.1,7.4l-0.6,0.7l-0.3-0.9c-0.3-1.1-0.6-2.1-0.9-3.1c-0.7-2.2-1.3-4.3-1.8-6.4
			c-0.5-2-1.7-2.1-3.4-2.1c-0.2,0-0.5,0-0.7,0c-1.7-0.1-1.8,0.7-2,2.4c-0.3,2.8-0.6,5.5-0.9,8.3c-0.3,2.4-0.5,4.7-0.8,7.1
			c-0.1,0.9-0.1,1.6,0.2,2c0.2,0.3,0.7,0.4,1.4,0.4c1.8,0,2.6-0.3,2.7-2.2c0.1-1.5,0.3-3,0.6-4.8c0.2-0.9,0.3-1.9,0.5-3l0.3-2.2
			l0.6,2.1c0.3,1.1,0.7,2.1,1,3c0.6,2,1.1,3.5,1.6,5.2c0.4,1.4,0.9,1.9,2.3,1.9c1.6,0.1,2.4-0.5,2.7-1.9c0.3-1.3,0.7-2.7,1.1-4
			c0.2-0.6,0.3-1.1,0.5-1.7l0.1-0.3L1467,266.5z"/>
	</g>
	<g>
		<path class="st0" d="M1438.3,254c1.8,0,3.7,0,5.5,0c1.6-0.1,2.5,0.4,2.4,2.2c-0.1,1.4,0,2.9-2,2.7c-3.7-0.5-3.4,1.9-3.4,4.3
			c0.1,3-0.1,6,0,9c0.1,2.1-0.7,2.9-2.9,2.9c-2.2,0-3-0.8-2.9-2.9c0.1-2.5,0.1-5,0-7.5c-0.1-2.7,1.3-6.3-3.9-5.9
			c-1.6,0.2-1.3-1.6-1.4-2.7c-0.1-1.4,0.4-2.2,2-2.2C1434,254,1436.1,254,1438.3,254z"/>
		<path class="st0" d="M1438,275.6C1438,275.6,1438,275.6,1438,275.6c-1.3,0-2.1-0.3-2.7-0.8c-0.5-0.6-0.8-1.4-0.7-2.6
			c0.1-2.3,0.1-4.7,0-7.4c0-0.5,0-1.1,0.1-1.6c0.1-1.3,0.2-2.6-0.5-3.2c-0.5-0.5-1.5-0.7-2.9-0.5c-0.6,0.1-1-0.1-1.3-0.4
			c-0.6-0.5-0.6-1.4-0.6-2.2c0-0.2,0-0.4,0-0.6c-0.1-0.9,0.1-1.6,0.6-2c0.4-0.4,1.1-0.7,1.9-0.6c1.5,0,3.1,0,4.6,0l1.9,0
			c0.6,0,1.1,0,1.7,0c1.2,0,2.5,0,3.7,0c1.1,0,1.8,0.2,2.3,0.7c0.5,0.5,0.7,1.1,0.6,2.1l0,0.2c0,0.9-0.1,2-0.8,2.6
			c-0.4,0.4-1,0.5-1.7,0.4c-1.1-0.1-1.9,0-2.3,0.4c-0.6,0.6-0.6,1.8-0.6,3l0,0.4c0,1.3,0,2.6,0,3.9c0,1.7,0,3.4,0,5
			c0,1.2-0.2,2-0.7,2.6C1440.1,275.3,1439.3,275.6,1438,275.6z M1432.1,258.3c1.2,0,2.2,0.3,2.8,0.9c1,1,0.9,2.5,0.8,4
			c0,0.5-0.1,1,0,1.5c0.1,2.7,0.1,5.2,0,7.5c0,0.9,0.1,1.5,0.4,1.9c0.3,0.4,1,0.5,1.9,0.5c0,0,0,0,0,0c1,0,1.6-0.2,1.9-0.5
			c0.3-0.4,0.5-0.9,0.4-1.9c-0.1-1.7,0-3.4,0-5.1c0-1.3,0-2.6,0-3.9l0-0.4c0-1.4-0.1-2.9,0.9-3.8c0.7-0.6,1.7-0.8,3.1-0.6
			c0.5,0.1,0.8,0,1-0.2c0.4-0.3,0.4-1.1,0.4-1.9l0-0.2c0-0.6-0.1-1.1-0.3-1.3c-0.3-0.3-0.8-0.4-1.6-0.4c-1.3,0-2.5,0-3.8,0
			c-0.6,0-1.1,0-1.7,0l-1.9,0c-1.5,0-3.1,0-4.6,0c-0.6,0-1,0.1-1.2,0.3c-0.2,0.2-0.3,0.7-0.3,1.3c0,0.2,0,0.4,0,0.6
			c0,0.5,0,1.2,0.3,1.5c0.1,0.1,0.3,0.1,0.6,0.1C1431.5,258.3,1431.8,258.3,1432.1,258.3z"/>
	</g>
	<g>
		<path class="st0" d="M191.8,219.9c1.8-3,4.8-1.4,7.3-1.7C197.3,221.4,194.3,219.8,191.8,219.9z"/>
		<path class="st0" d="M195.7,220.7c-0.6,0-1.3-0.1-1.9-0.2c-0.7-0.1-1.3-0.2-1.9-0.2l-0.9,0l0.5-0.8c1.5-2.4,3.6-2.2,5.5-2
			c0.8,0.1,1.5,0.1,2.1,0.1l1-0.1l-0.5,0.8C198.5,220.3,197.1,220.7,195.7,220.7z M192.8,219.4c0.4,0,0.7,0.1,1.1,0.1
			c1.6,0.2,3.1,0.4,4.2-0.8c-0.4,0-0.9-0.1-1.3-0.1C195.2,218.4,193.9,218.3,192.8,219.4z"/>
	</g>
	<g>
		<path class="st0" d="M61.1,217.9c2.4,0.6,1.8,2.5,1.8,4.2C60.5,221.5,60.9,219.7,61.1,217.9z"/>
		<path class="st0" d="M63.4,222.8l-0.6-0.2c-2.6-0.7-2.4-2.7-2.2-4.3l0.1-1l0.6,0.1c2.5,0.6,2.3,2.6,2.2,4c0,0.2,0,0.5-0.1,0.7
			L63.4,222.8z M61.5,218.6c-0.2,1.4-0.2,2.3,0.9,2.8c0,0,0-0.1,0-0.1C62.6,220,62.6,219.1,61.5,218.6z"/>
	</g>
	<g>
		<path class="st0" d="M146.2,244.1c-0.6,2.5-2.5,1.9-4.2,1.7C142.6,243.4,144.5,244.1,146.2,244.1z"/>
		<path class="st0" d="M143.8,246.5c-0.5,0-0.9-0.1-1.3-0.1c-0.2,0-0.4-0.1-0.6-0.1l-0.6-0.1l0.1-0.6c0.6-2.5,2.6-2.3,4-2.2
			c0.3,0,0.5,0.1,0.8,0.1l0.6,0l-0.2,0.6C146.2,246.1,145,246.5,143.8,246.5z M142.6,245.4C142.6,245.4,142.6,245.4,142.6,245.4
			c1.5,0.2,2.4,0.3,2.9-0.8c-0.1,0-0.1,0-0.2,0C143.9,244.4,143.1,244.4,142.6,245.4z"/>
	</g>
	<g>
		<path class="st0" d="M206.8,185.2c-2.1-0.3-1.9-1.8-1.7-3.3C207.1,182.3,207.1,183.7,206.8,185.2z"/>
		<path class="st0" d="M207.2,185.8l-0.5-0.1c-0.9-0.1-1.5-0.4-1.8-0.9c-0.6-0.8-0.5-1.8-0.3-2.9l0.1-0.5l0.5,0.1
			c0.9,0.1,1.5,0.5,1.8,1c0.6,0.8,0.4,1.9,0.3,2.9L207.2,185.8z M205.5,182.6c-0.1,0.7-0.1,1.2,0.2,1.6c0.1,0.2,0.4,0.3,0.7,0.4
			c0.1-0.6,0.1-1.2-0.2-1.6C206.1,182.8,205.9,182.7,205.5,182.6z"/>
	</g>
	<g>
		<path class="st0" d="M132.1,245.8c-1.5,0.3-2.9,0.2-3.2-1.7C130.4,243.8,131.7,243.9,132.1,245.8z"/>
		<path class="st0" d="M130.9,246.5c-1,0-2.2-0.4-2.6-2.2l-0.1-0.5l0.5-0.1c0.9-0.2,2-0.3,2.8,0.3c0.5,0.4,0.9,1,1,1.9l0.1,0.5
			l-0.5,0.1C131.8,246.4,131.4,246.5,130.9,246.5z M129.5,244.5c0.3,0.8,0.9,1,2,0.9c-0.1-0.3-0.3-0.6-0.5-0.7
			C130.6,244.5,130,244.5,129.5,244.5z"/>
	</g>
	<g>
		<path class="st0" d="M117.1,129.2c-0.3,2.1-1.8,1.9-3.2,1.7C114.3,129,115.5,128.8,117.1,129.2z"/>
		<path class="st0" d="M115,131.5c-0.4,0-0.7,0-1-0.1l-0.7-0.1l0.1-0.5c0.2-0.9,0.5-1.6,1.1-1.9c0.7-0.4,1.5-0.5,2.7-0.2l0.4,0.1
			l-0.1,0.4C117.4,131.1,116.2,131.5,115,131.5z M114.5,130.5c1.1,0.1,1.7,0,2-0.9c-0.6-0.1-1.1-0.1-1.5,0.2
			C114.8,129.9,114.7,130.1,114.5,130.5z"/>
	</g>
</g>
</svg>
